<?xml version='1.0' encoding='utf-8'?>
<svg xmlns="http://www.w3.org/2000/svg" version="1.1" x="0px" y="0px" viewBox="0 0 1920 1080" style="enable-background:new 0 0 1920 1080;"> <style type="text/css"> .st0{fill:url(#SVGID_1_);} .st1{fill:none;} .st2{fill:#FFFFFF;} .st3{font-family:'MyriadPro-Regular';} .st4{font-size:16.9893px;} .st5{fill:url(#SVGID_2_);} .st6{fill:url(#SVGID_3_);} .st7{fill:#1B1464;} .st8{fill:url(#SVGID_4_);} .st9{fill:url(#SVGID_5_);} .st10{fill:url(#SVGID_6_);} .st11{fill:url(#SVGID_7_);} .st12{fill:#AFAAAA;} .st13{fill:#AFAAAA;stroke:#000000;stroke-width:2;stroke-miterlimit:10;} .st14{fill:none;stroke:#AFAAAA;stroke-width:2;stroke-miterlimit:10;} .st15{fill:#AFAAAA;stroke:#AFAAAA;stroke-width:2;stroke-miterlimit:10;} .st16{fill:none;stroke:#AFAAAA;stroke-width:2;stroke-linecap:round;stroke-miterlimit:10;} </style> <g id="_x30_"> <g> <path d="M803.4,971.5c-27,0-48.9-21.9-48.9-48.9V153.4c0-27,21.9-48.9,48.9-48.9h302.7c27,0,48.9,21.9,48.9,48.9v769.2 c0,27-21.9,48.9-48.9,48.9H803.4z"/> <path d="M1106.1,105c26.7,0,48.4,21.7,48.4,48.4v769.2c0,26.7-21.7,48.4-48.4,48.4H803.4c-26.7,0-48.4-21.7-48.4-48.4V153.4 c0-26.7,21.7-48.4,48.4-48.4H1106.1 M1106.1,104H803.4c-27.3,0-49.4,22.1-49.4,49.4v769.2c0,27.3,22.1,49.4,49.4,49.4h302.7 c27.3,0,49.4-22.1,49.4-49.4V153.4C1155.6,126.1,1133.4,104,1106.1,104L1106.1,104z"/> </g> <g> <linearGradient id="SVGID_1_" gradientUnits="userSpaceOnUse" x1="954.7829" y1="959.6441" x2="954.7829" y2="113.2669"> <stop offset="0" style="stop-color:#0074FF"/> <stop offset="1" style="stop-color:#ED7779"/> </linearGradient> <path class="st0" d="M1113,959.6H796.5c-17.7,0-32-14.3-32-32V145.3c0-17.7,14.3-32,32-32H1113c17.7,0,32,14.3,32,32v782.4 C1145,945.3,1130.7,959.6,1113,959.6z"/> </g> <g> <path d="M1036.6,104l-2.2,9.3l-1.1,4.6c0,12.8-13.2,23.2-29.4,23.2h-98.2c-16.3,0-29.4-10.4-29.4-23.2l-1.1-4.6l-2.2-9.3H1036.6z"/> </g> <rect x="797.2" y="122.5" class="st1" width="60.7" height="13.9"/> <text transform="matrix(1 0 0 1 808.4316 134.5962)" class="st2 st3 st4">10:00</text> </g> <g id="_x31_"> <g> <linearGradient id="SVGID_2_" gradientUnits="userSpaceOnUse" x1="949.3806" y1="112.7392" x2="940.8201" y2="127.5663"> <stop offset="3.712871e-02" style="stop-color:#777777"/> <stop offset="0.1009" style="stop-color:#7E7E7E"/> <stop offset="0.1915" style="stop-color:#909090"/> <stop offset="0.2981" style="stop-color:#AFAFAF"/> <stop offset="0.4159" style="stop-color:#D9D9D9"/> <stop offset="0.5074" style="stop-color:#FFFFFF"/> <stop offset="0.5727" style="stop-color:#CCCCCC;stop-opacity:0.9735"/> <stop offset="0.6599" style="stop-color:#8F8F8F;stop-opacity:0.9381"/> <stop offset="0.7436" style="stop-color:#5C5C5C;stop-opacity:0.9041"/> <stop offset="0.8217" style="stop-color:#343434;stop-opacity:0.8724"/> <stop offset="0.8928" style="stop-color:#171717;stop-opacity:0.8435"/> <stop offset="0.9545" style="stop-color:#060606;stop-opacity:0.8185"/> <stop offset="1" style="stop-color:#000000;stop-opacity:0.8"/> </linearGradient> <circle class="st5" cx="945.1" cy="120.2" r="8.6"/> <linearGradient id="SVGID_3_" gradientUnits="userSpaceOnUse" x1="933.816" y1="551.8098" x2="925.4239" y2="566.3453" gradientTransform="matrix(0.7559 0.6186 -0.6196 0.7572 588.8083 -878.1902)"> <stop offset="3.712871e-02" style="stop-color:#777777"/> <stop offset="0.1009" style="stop-color:#7E7E7E"/> <stop offset="0.1915" style="stop-color:#909090"/> <stop offset="0.2981" style="stop-color:#AFAFAF"/> <stop offset="0.4159" style="stop-color:#D9D9D9"/> <stop offset="0.5074" style="stop-color:#FFFFFF"/> <stop offset="0.5508" style="stop-color:#DEDEDE;stop-opacity:0.956"/> <stop offset="0.6452" style="stop-color:#9D9D9D;stop-opacity:0.8602"/> <stop offset="0.735" style="stop-color:#666666;stop-opacity:0.769"/> <stop offset="0.8179" style="stop-color:#3C3C3C;stop-opacity:0.6849"/> <stop offset="0.8922" style="stop-color:#1D1D1D;stop-opacity:0.6094"/> <stop offset="0.9554" style="stop-color:#0B0B0B;stop-opacity:0.5452"/> <stop offset="1" style="stop-color:#040404;stop-opacity:0.5"/> <stop offset="1" style="stop-color:#000000;stop-opacity:0.6"/> </linearGradient> <path class="st6" d="M951.5,125.4c-2.9,3.5-8,4-11.5,1.2c-3.5-2.9-4-8-1.1-11.5c2.9-3.5,8-4,11.5-1.2S954.3,121.9,951.5,125.4z"/> <ellipse transform="matrix(0.9987 -5.064448e-02 5.064448e-02 0.9987 -4.8724 48.0134)" class="st7" cx="945" cy="120.2" rx="6.6" ry="7"/> <linearGradient id="SVGID_4_" gradientUnits="userSpaceOnUse" x1="1088.1237" y1="6.8531" x2="1097.7405" y2="6.8531" gradientTransform="matrix(0.8867 -0.4623 0.5962 1.1435 -29.0155 614.6844)"> <stop offset="0" style="stop-color:#FFFFFF;stop-opacity:0.9"/> <stop offset="6.188119e-02" style="stop-color:#CCE0F4"/> <stop offset="0.1366" style="stop-color:#C3DAF0;stop-opacity:0.8997"/> <stop offset="0.2609" style="stop-color:#A9C9E4;stop-opacity:0.7329"/> <stop offset="0.4194" style="stop-color:#80AED1;stop-opacity:0.5201"/> <stop offset="0.6061" style="stop-color:#4689B7;stop-opacity:0.2696"/> </linearGradient> <path class="st8" d="M948.5,115c0.8,1.6-0.4,3.9-2.7,5.1c-2.4,1.2-4.9,0.9-5.8-0.7c-0.8-1.6,0.4-3.9,2.7-5.1 C945,113.1,947.6,113.4,948.5,115z"/> <linearGradient id="SVGID_5_" gradientUnits="userSpaceOnUse" x1="971.8244" y1="115.8351" x2="966.7787" y2="124.5745"> <stop offset="3.712871e-02" style="stop-color:#777777"/> <stop offset="0.1009" style="stop-color:#7E7E7E"/> <stop offset="0.1915" style="stop-color:#909090"/> <stop offset="0.2981" style="stop-color:#AFAFAF"/> <stop offset="0.4159" style="stop-color:#D9D9D9"/> <stop offset="0.5074" style="stop-color:#FFFFFF"/> <stop offset="0.5727" style="stop-color:#CCCCCC;stop-opacity:0.9735"/> <stop offset="0.6599" style="stop-color:#8F8F8F;stop-opacity:0.9381"/> <stop offset="0.7436" style="stop-color:#5C5C5C;stop-opacity:0.9041"/> <stop offset="0.8217" style="stop-color:#343434;stop-opacity:0.8724"/> <stop offset="0.8928" style="stop-color:#171717;stop-opacity:0.8435"/> <stop offset="0.9545" style="stop-color:#060606;stop-opacity:0.8185"/> <stop offset="1" style="stop-color:#000000;stop-opacity:0.8"/> </linearGradient> <circle class="st9" cx="969.3" cy="120.2" r="5"/> <linearGradient id="SVGID_6_" gradientUnits="userSpaceOnUse" x1="951.2903" y1="539.1702" x2="946.3439" y2="547.7378" gradientTransform="matrix(0.7559 0.6186 -0.6196 0.7572 588.8083 -878.1902)"> <stop offset="3.712871e-02" style="stop-color:#777777"/> <stop offset="0.1009" style="stop-color:#7E7E7E"/> <stop offset="0.1915" style="stop-color:#909090"/> <stop offset="0.2981" style="stop-color:#AFAFAF"/> <stop offset="0.4159" style="stop-color:#D9D9D9"/> <stop offset="0.5074" style="stop-color:#FFFFFF"/> <stop offset="0.5508" style="stop-color:#DEDEDE;stop-opacity:0.956"/> <stop offset="0.6452" style="stop-color:#9D9D9D;stop-opacity:0.8602"/> <stop offset="0.735" style="stop-color:#666666;stop-opacity:0.769"/> <stop offset="0.8179" style="stop-color:#3C3C3C;stop-opacity:0.6849"/> <stop offset="0.8922" style="stop-color:#1D1D1D;stop-opacity:0.6094"/> <stop offset="0.9554" style="stop-color:#0B0B0B;stop-opacity:0.5452"/> <stop offset="1" style="stop-color:#040404;stop-opacity:0.5"/> <stop offset="1" style="stop-color:#000000;stop-opacity:0.6"/> </linearGradient> <path class="st10" d="M973.1,123.3c-1.7,2.1-4.7,2.4-6.8,0.7c-2.1-1.7-2.4-4.7-0.7-6.8s4.7-2.4,6.8-0.7 C974.4,118.2,974.7,121.2,973.1,123.3z"/> <ellipse transform="matrix(0.9987 -5.064448e-02 5.064448e-02 0.9987 -4.8439 49.2411)" class="st7" cx="969.2" cy="120.2" rx="3.9" ry="4.1"/> <linearGradient id="SVGID_7_" gradientUnits="userSpaceOnUse" x1="1111.3121" y1="16.5202" x2="1116.9806" y2="16.5202" gradientTransform="matrix(0.8867 -0.4623 0.5962 1.1435 -29.0155 614.6844)"> <stop offset="0" style="stop-color:#FFFFFF;stop-opacity:0.9"/> <stop offset="6.188119e-02" style="stop-color:#CCE0F4"/> <stop offset="0.1366" style="stop-color:#C3DAF0;stop-opacity:0.8997"/> <stop offset="0.2609" style="stop-color:#A9C9E4;stop-opacity:0.7329"/> <stop offset="0.4194" style="stop-color:#80AED1;stop-opacity:0.5201"/> <stop offset="0.6061" style="stop-color:#4689B7;stop-opacity:0.2696"/> </linearGradient> <path class="st11" d="M971.3,117.2c0.5,0.9-0.2,2.3-1.6,3c-1.4,0.7-2.9,0.5-3.4-0.4c-0.5-0.9,0.2-2.3,1.6-3 C969.3,116,970.8,116.2,971.3,117.2z"/> </g> </g> <g id="_x32_"> <g> <path class="st2" d="M1060.7,123.9c1.4,0,2.3,1.4,1.6,2.5l-0.2,0.3l-7,11.1c-0.7,1.1-2.5,1.1-3.2,0l-6.9-11.3 c-0.7-1.1,0.2-2.5,1.6-2.5C1054.1,123.9,1058.4,123.9,1060.7,123.9z"/> <path class="st12" d="M1062.6,125.9L1062.6,125.9c-0.3,0.5-0.9,0.9-1.6,0.9h-14.8c-0.7,0-1.3-0.3-1.6-0.9l0,0 c-0.6-1,0-2.2,1.1-2.5c2.1-0.5,4.9-0.9,8.3-0.9c3,0,5.5,0.4,7.5,0.9C1062.7,123.7,1063.3,124.9,1062.6,125.9z"/> </g> <g> <rect x="1100" y="124.5" class="st12" width="9" height="15"/> <rect x="1102.5" y="122.5" class="st12" width="4" height="2"/> <rect x="1100" y="129" class="st2" width="9" height="10.5"/> </g> <polyline class="st2" points="1089.2,140.3 1067.5,140.3 1089.2,124.5 "/> </g> <g id="_x33_"> <g> <path class="st12" d="M1110.5,947.3h-19.8c-3,0-5.4-2.4-5.4-5.4v-12.2c0-3,2.4-5.4,5.4-5.4h19.8c3,0,5.4,2.4,5.4,5.4v12.2 C1115.8,944.9,1113.4,947.3,1110.5,947.3z"/> <path class="st12" d="M1107.3,928.2h-13.5c-1.3,0-2.3-1-2.3-2.3v-2.5c0-1.3,1-2.3,2.3-2.3h13.5c1.3,0,2.3,1,2.3,2.3v2.5 C1109.6,927.2,1108.6,928.2,1107.3,928.2z"/> <ellipse class="st13" cx="1100.7" cy="936.1" rx="4.5" ry="4.1"/> </g> <g> <path class="st14" d="M963.4,944.2h-18.7c-1.9,0-3.5-1.6-3.5-3.5v-13.2c0-1.9,1.6-3.5,3.5-3.5h18.7c1.9,0,3.5,1.6,3.5,3.5v13.2 C966.9,942.6,965.3,944.2,963.4,944.2z"/> <circle class="st15" cx="954.3" cy="934.4" r="2.7"/> <path class="st16" d="M947.4,915.3c2.7-2.3,6.7-2.7,9.7-0.8c3.2,1.9,4.7,5.9,3.5,9.5"/> </g> <g> <path class="st14" d="M788.8,927.2c1,1.6,5.2,7.7,11.6,7.7c6.4,0,10.6-6.1,11.6-7.7"/> <line class="st14" x1="800.3" y1="934.9" x2="800.3" y2="948.8"/> <path class="st15" d="M801.4,931.2h-2.2c-1.1,0-2-0.9-2-2v-13c0-1.1,0.9-2,2-2h2.2c1.1,0,2,0.9,2,2v13 C803.4,930.3,802.5,931.2,801.4,931.2z"/> </g> </g> </svg>