<svg class="gridItem__media" version="1.1" id="Layer_1" xmlns="http://www.w3.org/2000/svg" xmlns:xlink="http://www.w3.org/1999/xlink" x="0px" y="0px" width="1600" height="1200" viewBox="0 0 1600 1200" style="enable-background:new 0 0 1600 1200;" xml:space="preserve" fill="none">
<path d="M213.412 1081.85L166.532 507.189C165.34 492.557 169.407 477.98 178.002 466.079L411.922 142.339C418.167 133.679 426.554 126.791 436.263 122.349C445.971 117.907 456.667 116.063 467.302 116.999L1268.08 187.599C1280.76 188.718 1292.77 193.731 1302.48 201.951C1312.19 210.171 1319.12 221.194 1322.32 233.509L1432.32 656.959C1435.03 667.367 1434.96 678.304 1432.13 688.679L1324.47 1083.24L213.412 1081.85Z" fill="#F4F4F4"/>
<path d="M672.372 411.57H437.312V870.29H672.372V411.57Z" fill="#E6E6E6"/>
<path d="M629.633 411.57H437.312V870.29H629.633V411.57Z" fill="#F0F0F0"/>
<path d="M675.138 411.57H432.258V419.06H675.138V411.57Z" fill="#E0E0E0"/>
<path d="M675.138 396.602H432.258V404.092H675.138V396.602Z" fill="#E0E0E0"/>
<path d="M670.033 404.09H437.312V411.58H670.033V404.09Z" fill="#F0F0F0"/>
<path d="M491.69 438.578H455.57V474.698H491.69V438.578Z" fill="#E6E6E6"/>
<path d="M491.698 438.578H458.758V474.698H491.698V438.578Z" fill="#F5F5F5"/>
<path d="M546.393 438.578H510.273V474.698H546.393V438.578Z" fill="#E6E6E6"/>
<path d="M546.401 438.578H513.461V474.698H546.401V438.578Z" fill="#F5F5F5"/>
<path d="M601.089 438.578H564.969V474.698H601.089V438.578Z" fill="#E6E6E6"/>
<path d="M601.096 438.578H568.156V474.698H601.096V438.578Z" fill="#F5F5F5"/>
<path d="M491.69 491.77H455.57V527.89H491.69V491.77Z" fill="#E6E6E6"/>
<path d="M491.698 491.77H458.758V527.89H491.698V491.77Z" fill="#F5F5F5"/>
<path d="M546.393 491.77H510.273V527.89H546.393V491.77Z" fill="#E6E6E6"/>
<path d="M546.401 491.77H513.461V527.89H546.401V491.77Z" fill="#F5F5F5"/>
<path d="M601.089 491.77H564.969V527.89H601.089V491.77Z" fill="#E6E6E6"/>
<path d="M601.096 491.77H568.156V527.89H601.096V491.77Z" fill="#F5F5F5"/>
<path d="M491.69 589.18H455.57V625.3H491.69V589.18Z" fill="#E6E6E6"/>
<path d="M491.698 589.18H458.758V625.3H491.698V589.18Z" fill="#F5F5F5"/>
<path d="M546.393 589.18H510.273V625.3H546.393V589.18Z" fill="#E6E6E6"/>
<path d="M546.401 589.18H513.461V625.3H546.401V589.18Z" fill="#F5F5F5"/>
<path d="M601.089 589.18H564.969V625.3H601.089V589.18Z" fill="#E6E6E6"/>
<path d="M601.096 589.18H568.156V625.3H601.096V589.18Z" fill="#F5F5F5"/>
<path d="M491.69 642.371H455.57V678.491H491.69V642.371Z" fill="#E6E6E6"/>
<path d="M491.698 642.371H458.758V678.491H491.698V642.371Z" fill="#F5F5F5"/>
<path d="M546.393 642.371H510.273V678.491H546.393V642.371Z" fill="#E6E6E6"/>
<path d="M546.401 642.371H513.461V678.491H546.401V642.371Z" fill="#F5F5F5"/>
<path d="M601.089 642.371H564.969V678.491H601.089V642.371Z" fill="#E6E6E6"/>
<path d="M601.096 642.371H568.156V678.491H601.096V642.371Z" fill="#F5F5F5"/>
<path d="M491.69 750.621H455.57V786.741H491.69V750.621Z" fill="#E6E6E6"/>
<path d="M491.698 750.621H458.758V786.741H491.698V750.621Z" fill="#F5F5F5"/>
<path d="M546.393 750.621H510.273V786.741H546.393V750.621Z" fill="#E6E6E6"/>
<path d="M546.401 750.621H513.461V786.741H546.401V750.621Z" fill="#F5F5F5"/>
<path d="M601.089 750.621H564.969V786.741H601.089V750.621Z" fill="#E6E6E6"/>
<path d="M601.096 750.621H568.156V786.741H601.096V750.621Z" fill="#F5F5F5"/>
<path d="M491.69 803.809H455.57V839.929H491.69V803.809Z" fill="#E6E6E6"/>
<path d="M491.698 803.809H458.758V839.929H491.698V803.809Z" fill="#F5F5F5"/>
<path d="M546.393 803.809H510.273V839.929H546.393V803.809Z" fill="#E6E6E6"/>
<path d="M546.401 803.809H513.461V839.929H546.401V803.809Z" fill="#F5F5F5"/>
<path d="M601.089 803.809H564.969V839.929H601.089V803.809Z" fill="#E6E6E6"/>
<path d="M601.096 803.809H568.156V839.929H601.096V803.809Z" fill="#F5F5F5"/>
<path d="M672.372 553.289H437.312V556.629H672.372V553.289Z" fill="#E0E0E0"/>
<path d="M672.372 719.789H437.312V723.129H672.372V719.789Z" fill="#E0E0E0"/>
<path d="M397.617 548.93H235.047V944.52H397.617V548.93Z" fill="#E0E0E0"/>
<path d="M351.317 548.93H235.047V944.52H351.317V548.93Z" fill="#F0F0F0"/>
<path d="M290.301 581.441H247.031V602.451H290.301V581.441Z" fill="#E6E6E6"/>
<path d="M290.296 581.441H249.906V602.451H290.296V581.441Z" fill="#F5F5F5"/>
<path d="M340.348 581.441H297.078V602.451H340.348V581.441Z" fill="#E6E6E6"/>
<path d="M340.351 581.441H299.961V602.451H340.351V581.441Z" fill="#F5F5F5"/>
<path d="M290.301 620.98H247.031V641.99H290.301V620.98Z" fill="#E6E6E6"/>
<path d="M290.296 620.98H249.906V641.99H290.296V620.98Z" fill="#F5F5F5"/>
<path d="M340.348 620.98H297.078V641.99H340.348V620.98Z" fill="#E6E6E6"/>
<path d="M340.351 620.98H299.961V641.99H340.351V620.98Z" fill="#F5F5F5"/>
<path d="M290.301 671.512H247.031V692.522H290.301V671.512Z" fill="#E6E6E6"/>
<path d="M290.296 671.512H249.906V692.522H290.296V671.512Z" fill="#F5F5F5"/>
<path d="M340.348 671.512H297.078V692.522H340.348V671.512Z" fill="#E6E6E6"/>
<path d="M340.351 671.512H299.961V692.522H340.351V671.512Z" fill="#F5F5F5"/>
<path d="M290.301 700.551H247.031V721.561H290.301V700.551Z" fill="#E6E6E6"/>
<path d="M290.296 700.551H249.906V721.561H290.296V700.551Z" fill="#F5F5F5"/>
<path d="M340.348 700.551H297.078V721.561H340.348V700.551Z" fill="#E6E6E6"/>
<path d="M340.351 700.551H299.961V721.561H340.351V700.551Z" fill="#F5F5F5"/>
<path d="M290.301 748.25H247.031V769.26H290.301V748.25Z" fill="#E6E6E6"/>
<path d="M290.296 748.25H249.906V769.26H290.296V748.25Z" fill="#F5F5F5"/>
<path d="M340.348 748.25H297.078V769.26H340.348V748.25Z" fill="#E6E6E6"/>
<path d="M340.351 748.25H299.961V769.26H340.351V748.25Z" fill="#F5F5F5"/>
<path d="M290.301 777.289H247.031V798.299H290.301V777.289Z" fill="#E6E6E6"/>
<path d="M290.296 777.289H249.906V798.299H290.296V777.289Z" fill="#F5F5F5"/>
<path d="M340.348 777.289H297.078V798.299H340.348V777.289Z" fill="#E6E6E6"/>
<path d="M340.351 777.289H299.961V798.299H340.351V777.289Z" fill="#F5F5F5"/>
<path d="M290.301 829.199H247.031V850.209H290.301V829.199Z" fill="#E6E6E6"/>
<path d="M290.296 829.199H249.906V850.209H290.296V829.199Z" fill="#F5F5F5"/>
<path d="M340.348 829.199H297.078V850.209H340.348V829.199Z" fill="#E6E6E6"/>
<path d="M340.351 829.199H299.961V850.209H340.351V829.199Z" fill="#F5F5F5"/>
<path d="M290.301 867.539H247.031V888.549H290.301V867.539Z" fill="#E6E6E6"/>
<path d="M290.296 867.539H249.906V888.549H290.296V867.539Z" fill="#F5F5F5"/>
<path d="M340.348 867.539H297.078V888.549H340.348V867.539Z" fill="#E6E6E6"/>
<path d="M340.351 867.539H299.961V888.549H340.351V867.539Z" fill="#F5F5F5"/>
<path opacity="0.05" d="M397.617 654.949H235.047V658.559H397.617V654.949Z" fill="black"/>
<path opacity="0.05" d="M397.617 733.102H235.047V736.712H397.617V733.102Z" fill="black"/>
<path opacity="0.05" d="M397.617 811.941H235.047V815.551H397.617V811.941Z" fill="black"/>
<path d="M397.621 537.23H227.391V549.87H397.621V537.23Z" fill="#E0E0E0"/>
<path opacity="0.05" d="M397.619 537.23H358.719V549.87H397.619V537.23Z" fill="black"/>
<path d="M994.418 347.891H803.508V844.041H994.418V347.891Z" fill="#E6E6E6"/>
<path d="M923.764 347.879H732.844V844.029H923.764V347.879Z" fill="#F0F0F0"/>
<path d="M907.1 381.57H749.5V406.84H907.1V381.57Z" fill="#E6E6E6"/>
<path d="M907.089 381.57H755.609V406.84H907.089V381.57Z" fill="#F5F5F5"/>
<path d="M907.1 424.102H749.5V449.372H907.1V424.102Z" fill="#E6E6E6"/>
<path d="M907.089 424.102H755.609V449.372H907.089V424.102Z" fill="#F5F5F5"/>
<path d="M907.1 468.32H749.5V493.59H907.1V468.32Z" fill="#E6E6E6"/>
<path d="M907.089 468.32H755.609V493.59H907.089V468.32Z" fill="#F5F5F5"/>
<path d="M907.1 512.531H749.5V537.801H907.1V512.531Z" fill="#E6E6E6"/>
<path d="M907.089 512.531H755.609V537.801H907.089V512.531Z" fill="#F5F5F5"/>
<path d="M907.1 556.738H749.5V582.008H907.1V556.738Z" fill="#E6E6E6"/>
<path d="M907.089 556.738H755.609V582.008H907.089V556.738Z" fill="#F5F5F5"/>
<path d="M907.1 600.949H749.5V626.219H907.1V600.949Z" fill="#E6E6E6"/>
<path d="M907.089 600.949H755.609V626.219H907.089V600.949Z" fill="#F5F5F5"/>
<path d="M907.1 649.68H749.5V674.95H907.1V649.68Z" fill="#E6E6E6"/>
<path d="M907.089 649.68H755.609V674.95H907.089V649.68Z" fill="#F5F5F5"/>
<path d="M907.1 698.398H749.5V723.668H907.1V698.398Z" fill="#E6E6E6"/>
<path d="M907.089 698.398H755.609V723.668H907.089V698.398Z" fill="#F5F5F5"/>
<path d="M907.1 747.129H749.5V772.399H907.1V747.129Z" fill="#E6E6E6"/>
<path d="M907.089 747.129H755.609V772.399H907.089V747.129Z" fill="#F5F5F5"/>
<path d="M907.1 795.852H749.5V821.122H907.1V795.852Z" fill="#E6E6E6"/>
<path d="M907.089 795.852H755.609V821.122H907.089V795.852Z" fill="#F5F5F5"/>
<path d="M999.367 342.891H727.438V355.001H999.367V342.891Z" fill="#E0E0E0"/>
<path d="M999.367 321.051H727.438V333.161H999.367V321.051Z" fill="#E0E0E0"/>
<path d="M990.344 330.781H732.844V342.891H990.344V330.781Z" fill="#F0F0F0"/>
<path d="M994.419 381.559H941.219V406.839H994.419V381.559Z" fill="#E0E0E0"/>
<path d="M994.419 423.16H941.219V448.44H994.419V423.16Z" fill="#E0E0E0"/>
<path d="M994.419 464.762H941.219V490.042H994.419V464.762Z" fill="#E0E0E0"/>
<path d="M994.419 512.52H941.219V537.799H994.419V512.52Z" fill="#E0E0E0"/>
<path d="M994.419 556.738H941.219V582.018H994.419V556.738Z" fill="#E0E0E0"/>
<path d="M994.419 600.949H941.219V626.229H994.419V600.949Z" fill="#E0E0E0"/>
<path d="M994.419 649.672H941.219V674.952H994.419V649.672Z" fill="#E0E0E0"/>
<path d="M994.419 698.398H941.219V723.678H994.419V698.398Z" fill="#E0E0E0"/>
<path d="M994.419 747.121H941.219V772.401H994.419V747.121Z" fill="#E0E0E0"/>
<path d="M994.419 795.852H941.219V821.132H994.419V795.852Z" fill="#E0E0E0"/>
<path d="M882.154 831.27H864.844V858.34H882.154V831.27Z" fill="#E0E0E0"/>
<path d="M882.154 875.57H864.844V902.64H882.154V875.57Z" fill="#E0E0E0"/>
<path d="M882.154 918.621H864.844V945.691H882.154V918.621Z" fill="#E0E0E0"/>
<path d="M882.154 964.16H864.844V991.23H882.154V964.16Z" fill="#E0E0E0"/>
<path d="M882.154 1008.45H864.844V1035.52H882.154V1008.45Z" fill="#E0E0E0"/>
<path d="M882.152 804.07H700.102V1080.95H882.152V804.07Z" class="change-color-in-svg" fill="#4D61FC" style="fill: rgb(0, 183, 126);"/>
<path d="M851.399 804.059H700.109V1080.95H851.399V804.059Z" fill="#DADDDF"/>
<path d="M836.749 831.281H713.719V858.351H836.749V831.281Z" fill="#868A91"/>
<path d="M836.749 875.57H713.719V902.64H836.749V875.57Z" fill="#868A91"/>
<path d="M836.749 919.871H713.719V946.941H836.749V919.871Z" fill="#868A91"/>
<path d="M836.749 964.16H713.719V991.23H836.749V964.16Z" fill="#868A91"/>
<path d="M836.749 1008.45H713.719V1035.52H836.749V1008.45Z" fill="#868A91"/>
<path d="M836.75 831.281H718.25V858.351H836.75V831.281Z" fill="#B2B6BB"/>
<path d="M836.75 875.57H718.25V902.64H836.75V875.57Z" fill="#B2B6BB"/>
<path d="M836.75 919.871H718.25V946.941H836.75V919.871Z" fill="#B2B6BB"/>
<path d="M836.75 964.16H718.25V991.23H836.75V964.16Z" fill="#B2B6BB"/>
<path d="M836.75 1008.45H718.25V1035.52H836.75V1008.45Z" fill="#B2B6BB"/>
<path d="M882.148 804.059H851.398V1080.95H882.148V804.059Z" fill="#B2B6BB"/>
<path d="M1065.89 633.859H882.148V1080.95H1065.89V633.859Z" class="change-color-in-svg" fill="#4D61FC" style="fill: rgb(0, 183, 126);"/>
<path d="M1021.93 633.859H882.148V1080.95H1021.93V633.859Z" fill="#DADDDF"/>
<path d="M944.603 670.602H895.703V694.342H944.603V670.602Z" fill="#868A91"/>
<path opacity="0.2" d="M944.603 670.602H898.953V694.342H944.603V670.602Z" fill="white"/>
<path d="M1001.16 670.602H952.258V694.342H1001.16V670.602Z" fill="#868A91"/>
<path opacity="0.2" d="M1001.17 670.602H955.523V694.342H1001.17V670.602Z" fill="white"/>
<path d="M944.603 715.289H895.703V739.029H944.603V715.289Z" fill="#868A91"/>
<path opacity="0.2" d="M944.603 715.289H898.953V739.029H944.603V715.289Z" fill="white"/>
<path d="M1001.16 715.289H952.258V739.029H1001.16V715.289Z" fill="#868A91"/>
<path opacity="0.2" d="M1001.17 715.289H955.523V739.029H1001.17V715.289Z" fill="white"/>
<path d="M944.603 772.398H895.703V796.138H944.603V772.398Z" fill="#868A91"/>
<path opacity="0.2" d="M944.603 772.398H898.953V796.138H944.603V772.398Z" fill="white"/>
<path d="M1001.16 772.398H952.258V796.138H1001.16V772.398Z" fill="#868A91"/>
<path opacity="0.2" d="M1001.17 772.398H955.523V796.138H1001.17V772.398Z" fill="white"/>
<path d="M944.603 805.211H895.703V828.951H944.603V805.211Z" fill="#868A91"/>
<path opacity="0.2" d="M944.603 805.211H898.953V828.951H944.603V805.211Z" fill="white"/>
<path d="M1001.16 805.211H952.258V828.951H1001.16V805.211Z" fill="#868A91"/>
<path opacity="0.2" d="M1001.17 805.211H955.523V828.951H1001.17V805.211Z" fill="white"/>
<path d="M944.603 859.121H895.703V882.861H944.603V859.121Z" fill="#868A91"/>
<path opacity="0.2" d="M944.603 859.121H898.953V882.861H944.603V859.121Z" fill="white"/>
<path d="M1001.16 859.121H952.258V882.861H1001.16V859.121Z" fill="#868A91"/>
<path opacity="0.2" d="M1001.17 859.121H955.523V882.861H1001.17V859.121Z" fill="white"/>
<path d="M944.603 891.941H895.703V915.681H944.603V891.941Z" fill="#868A91"/>
<path opacity="0.2" d="M944.603 891.941H898.953V915.681H944.603V891.941Z" fill="white"/>
<path d="M1001.16 891.941H952.258V915.681H1001.16V891.941Z" fill="#868A91"/>
<path opacity="0.2" d="M1001.17 891.941H955.523V915.681H1001.17V891.941Z" fill="white"/>
<path d="M944.603 950.609H895.703V974.349H944.603V950.609Z" fill="#868A91"/>
<path opacity="0.2" d="M944.603 950.609H898.953V974.349H944.603V950.609Z" fill="white"/>
<path d="M1001.16 950.609H952.258V974.349H1001.16V950.609Z" fill="#868A91"/>
<path opacity="0.2" d="M1001.17 950.609H955.523V974.349H1001.17V950.609Z" fill="white"/>
<path d="M944.603 993.941H895.703V1017.68H944.603V993.941Z" fill="#868A91"/>
<path opacity="0.2" d="M944.603 993.941H898.953V1017.68H944.603V993.941Z" fill="white"/>
<path d="M1001.16 993.941H952.258V1017.68H1001.16V993.941Z" fill="#868A91"/>
<path opacity="0.2" d="M1001.17 993.941H955.523V1017.68H1001.17V993.941Z" fill="white"/>
<path d="M1065.89 620.629H873.5V634.909H1065.89V620.629Z" fill="#B2B6BB"/>
<path opacity="0.2" d="M1065.89 620.629H1021.93V634.909H1065.89V620.629Z" fill="black"/>
<path d="M1065.89 634.91H1021.93V1080.95H1065.89V634.91Z" fill="#B2B6BB"/>
<path d="M1065.89 753.012H882.148V757.092H1065.89V753.012Z" fill="#F4F4F4"/>
<path d="M1065.89 841.328H882.148V845.408H1065.89V841.328Z" fill="#F4F4F4"/>
<path d="M1065.89 930.441H882.148V934.521H1065.89V930.441Z" fill="#F4F4F4"/>
<path d="M434.45 804.059H398.07V1080.95H434.45V804.059Z" class="change-color-in-svg" fill="#4D61FC" style="fill: rgb(0, 183, 126);"/>
<path d="M434.45 804.059H398.07V1080.95H434.45V804.059Z" fill="#B2B6BB"/>
<path d="M398.072 889.109V804.059L325.312 889.109H203.172V956.409L213.332 1080.95H398.072V889.109Z" fill="#DADDDF"/>
<path d="M249.852 928H220.852V957H249.852V928Z" fill="#868A91"/>
<path d="M308.859 928H279.859V957H308.859V928Z" fill="#868A91"/>
<path d="M367.867 928H338.867V957H367.867V928Z" fill="#868A91"/>
<path d="M249.852 976.809H220.852V1005.81H249.852V976.809Z" fill="#868A91"/>
<path d="M308.859 976.809H279.859V1005.81H308.859V976.809Z" fill="#868A91"/>
<path d="M367.867 976.809H338.867V1005.81H367.867V976.809Z" fill="#868A91"/>
<path d="M249.852 1025.61H220.852V1054.61H249.852V1025.61Z" fill="#868A91"/>
<path d="M308.859 1025.61H279.859V1054.61H308.859V1025.61Z" fill="#868A91"/>
<path d="M367.867 1025.61H338.867V1054.61H367.867V1025.61Z" fill="#868A91"/>
<path opacity="0.2" d="M253.047 928H224.047V957H253.047V928Z" fill="white"/>
<path opacity="0.2" d="M312.062 928H283.062V957H312.062V928Z" fill="white"/>
<path opacity="0.2" d="M371.07 928H342.07V957H371.07V928Z" fill="white"/>
<path opacity="0.2" d="M253.047 976.809H224.047V1005.81H253.047V976.809Z" fill="white"/>
<path opacity="0.2" d="M312.062 976.809H283.062V1005.81H312.062V976.809Z" fill="white"/>
<path opacity="0.2" d="M371.07 976.809H342.07V1005.81H371.07V976.809Z" fill="white"/>
<path opacity="0.2" d="M253.047 1025.61H224.047V1054.61H253.047V1025.61Z" fill="white"/>
<path opacity="0.2" d="M312.062 1025.61H283.062V1054.61H312.062V1025.61Z" fill="white"/>
<path opacity="0.2" d="M371.07 1025.61H342.07V1054.61H371.07V1025.61Z" fill="white"/>
<path opacity="0.5" d="M1091.63 558.281H1084.72V586.841H1091.63V558.281Z" fill="white"/>
<path opacity="0.5" d="M1091.63 606.352H1084.72V634.912H1091.63V606.352Z" fill="white"/>
<path opacity="0.5" d="M1091.63 656.32H1084.72V684.88H1091.63V656.32Z" fill="white"/>
<path opacity="0.5" d="M1091.63 706.289H1084.72V734.849H1091.63V706.289Z" fill="white"/>
<path opacity="0.5" d="M1091.63 756.262H1084.72V784.822H1091.63V756.262Z" fill="white"/>
<path opacity="0.5" d="M1091.63 806.219H1084.72V834.779H1091.63V806.219Z" fill="white"/>
<path opacity="0.5" d="M1091.63 861.289H1084.72V889.849H1091.63V861.289Z" fill="white"/>
<path opacity="0.5" d="M1091.63 916.359H1084.72V944.919H1091.63V916.359Z" fill="white"/>
<path opacity="0.5" d="M1091.63 971.43H1084.72V999.99H1091.63V971.43Z" fill="white"/>
<path opacity="0.5" d="M1091.63 1026.5H1084.72V1055.06H1091.63V1026.5Z" fill="white"/>
<path d="M1281.66 520.211H1065.89V1080.96H1281.66V520.211Z" class="change-color-in-svg" fill="#4D61FC" style="fill: rgb(0, 183, 126);"/>
<path d="M1281.66 528.25V1080.95H1325.12L1361.52 947.55V528.25H1281.66Z" fill="#B2B6BB"/>
<path d="M1361.52 558.27H1301.4V586.84H1361.52V558.27Z" fill="#B2B6BB"/>
<path d="M1361.52 605.281H1301.4V633.851H1361.52V605.281Z" fill="#B2B6BB"/>
<path d="M1361.52 652.301H1301.4V680.871H1361.52V652.301Z" fill="#B2B6BB"/>
<path d="M1361.52 706.281H1301.4V734.851H1361.52V706.281Z" fill="#B2B6BB"/>
<path d="M1361.52 756.25H1301.4V784.82H1361.52V756.25Z" fill="#B2B6BB"/>
<path d="M1361.52 806.219H1301.4V834.789H1361.52V806.219Z" fill="#B2B6BB"/>
<path d="M1361.52 861.289H1301.4V889.859H1361.52V861.289Z" fill="#B2B6BB"/>
<path d="M1361.52 916.352H1301.4V944.922H1361.52V916.352Z" fill="#B2B6BB"/>
<path d="M1347.21 1000H1301.4V971.422H1355.01" fill="#B2B6BB"/>
<path opacity="0.3" d="M1361.52 558.27H1301.4V586.84H1361.52V558.27Z" fill="white"/>
<path opacity="0.3" d="M1361.52 605.281H1301.4V633.851H1361.52V605.281Z" fill="white"/>
<path opacity="0.3" d="M1361.52 652.301H1301.4V680.871H1361.52V652.301Z" fill="white"/>
<path opacity="0.3" d="M1361.52 706.281H1301.4V734.851H1361.52V706.281Z" fill="white"/>
<path opacity="0.3" d="M1361.52 756.25H1301.4V784.82H1361.52V756.25Z" fill="white"/>
<path opacity="0.3" d="M1361.52 806.219H1301.4V834.789H1361.52V806.219Z" fill="white"/>
<path opacity="0.3" d="M1361.52 861.289H1301.4V889.859H1361.52V861.289Z" fill="white"/>
<path opacity="0.3" d="M1361.52 916.352H1301.4V944.922H1361.52V916.352Z" fill="white"/>
<path opacity="0.3" d="M1301.4 1000H1347.21L1355.01 971.422H1301.4V1000Z" fill="white"/>
<path opacity="0.3" d="M1332.19 1055.06H1301.4V1026.49H1339.98" fill="white"/>
<path d="M1281.66 520.211H1065.89V1080.96H1281.66V520.211Z" fill="#DADDDF"/>
<path d="M1262.83 558.281H1084.72V586.841H1262.83V558.281Z" fill="#868A91"/>
<path opacity="0.2" d="M1262.83 558.281H1091.63V586.841H1262.83V558.281Z" fill="white"/>
<path d="M1262.83 606.352H1084.72V634.912H1262.83V606.352Z" fill="#868A91"/>
<path opacity="0.2" d="M1262.83 606.352H1091.63V634.912H1262.83V606.352Z" fill="white"/>
<path d="M1262.83 656.32H1084.72V684.88H1262.83V656.32Z" fill="#868A91"/>
<path opacity="0.2" d="M1262.83 656.32H1091.63V684.88H1262.83V656.32Z" fill="white"/>
<path d="M1262.83 706.289H1084.72V734.849H1262.83V706.289Z" fill="#868A91"/>
<path opacity="0.2" d="M1262.83 706.289H1091.63V734.849H1262.83V706.289Z" fill="white"/>
<path d="M1262.83 756.262H1084.72V784.822H1262.83V756.262Z" fill="#868A91"/>
<path opacity="0.2" d="M1262.83 756.262H1091.63V784.822H1262.83V756.262Z" fill="white"/>
<path d="M1262.83 806.219H1084.72V834.779H1262.83V806.219Z" fill="#868A91"/>
<path opacity="0.2" d="M1262.83 806.219H1091.63V834.779H1262.83V806.219Z" fill="white"/>
<path d="M1262.83 861.289H1084.72V889.849H1262.83V861.289Z" fill="#868A91"/>
<path opacity="0.2" d="M1262.83 861.289H1091.63V889.849H1262.83V861.289Z" fill="white"/>
<path d="M1262.83 916.359H1084.72V944.919H1262.83V916.359Z" fill="#868A91"/>
<path opacity="0.2" d="M1262.83 916.359H1091.63V944.919H1262.83V916.359Z" fill="white"/>
<path d="M1262.83 971.43H1084.72V999.99H1262.83V971.43Z" fill="#868A91"/>
<path opacity="0.2" d="M1262.83 971.43H1091.63V999.99H1262.83V971.43Z" fill="white"/>
<path d="M1262.83 1026.5H1084.72V1055.06H1262.83V1026.5Z" fill="#868A91"/>
<path opacity="0.2" d="M1262.83 1026.5H1091.63V1055.06H1262.83V1026.5Z" fill="white"/>
<path d="M1356.91 503.559H1281.66V514.559H1356.91V503.559Z" class="change-color-in-svg" fill="#4D61FC" style="fill: rgb(0, 183, 126);"/>
<path d="M1356.91 500.879H1065.89V514.559H1356.91V500.879Z" fill="#DADDDF"/>
<path d="M1367.12 514.559H1059.79V528.239H1367.12V514.559Z" fill="#B2B6BB"/>
<path d="M1367.12 489.879H1059.79V503.559H1367.12V489.879Z" fill="#B2B6BB"/>
<path opacity="0.05" d="M1367.12 514.559H1059.79V528.239H1367.12V514.559Z" fill="#B2B6BB"/>
<path opacity="0.05" d="M1367.12 489.879H1059.79V503.559H1367.12V489.879Z" fill="#B2B6BB"/>
<path opacity="0.2" d="M1367.12 514.559H1281.66V528.239H1367.12V514.559Z" fill="black"/>
<path opacity="0.2" d="M1367.12 489.879H1281.66V503.559H1367.12V489.879Z" fill="black"/>
<path opacity="0.2" d="M1356.91 503.559H1281.66V514.559H1356.91V503.559Z" fill="black"/>
<path d="M700.113 562.512H434.453V1080.95H700.113V562.512Z" class="change-color-in-svg" fill="#4D61FC" style="fill: rgb(0, 183, 126);"/>
<path d="M651.813 562.512H434.453V1080.95H651.813V562.512Z" fill="#DADDDF"/>
<path d="M703.227 562.512H428.727V570.962H703.227V562.512Z" fill="#B2B6BB"/>
<path d="M703.227 545.57H428.727V554.05H703.227V545.57Z" fill="#B2B6BB"/>
<path d="M697.481 554.059H434.461V562.509H697.481V554.059Z" fill="#DADDDF"/>
<path d="M495.908 593.031H455.078V633.861H495.908V593.031Z" fill="#868A91"/>
<path d="M495.91 593.031H458.68V633.861H495.91V593.031Z" fill="#B2B6BB"/>
<path d="M557.728 593.031H516.898V633.861H557.728V593.031Z" fill="#868A91"/>
<path d="M557.73 593.031H520.5V633.861H557.73V593.031Z" fill="#B2B6BB"/>
<path d="M619.549 593.031H578.719V633.861H619.549V593.031Z" fill="#868A91"/>
<path d="M619.55 593.031H582.32V633.861H619.55V593.031Z" fill="#B2B6BB"/>
<path d="M495.908 653.141H455.078V693.971H495.908V653.141Z" fill="#868A91"/>
<path d="M495.91 653.141H458.68V693.971H495.91V653.141Z" fill="#B2B6BB"/>
<path d="M557.728 653.141H516.898V693.971H557.728V653.141Z" fill="#868A91"/>
<path d="M557.73 653.141H520.5V693.971H557.73V653.141Z" fill="#B2B6BB"/>
<path d="M619.549 653.141H578.719V693.971H619.549V653.141Z" fill="#868A91"/>
<path d="M619.55 653.141H582.32V693.971H619.55V653.141Z" fill="#B2B6BB"/>
<path d="M495.908 763.238H455.078V804.068H495.908V763.238Z" fill="#868A91"/>
<path d="M495.91 763.238H458.68V804.068H495.91V763.238Z" fill="#B2B6BB"/>
<path d="M557.728 763.238H516.898V804.068H557.728V763.238Z" fill="#868A91"/>
<path d="M557.73 763.238H520.5V804.068H557.73V763.238Z" fill="#B2B6BB"/>
<path d="M619.549 763.238H578.719V804.068H619.549V763.238Z" fill="#868A91"/>
<path d="M619.55 763.238H582.32V804.068H619.55V763.238Z" fill="#B2B6BB"/>
<path d="M495.908 823.352H455.078V864.182H495.908V823.352Z" fill="#868A91"/>
<path d="M495.91 823.352H458.68V864.182H495.91V823.352Z" fill="#B2B6BB"/>
<path d="M557.728 823.352H516.898V864.182H557.728V823.352Z" fill="#868A91"/>
<path d="M557.73 823.352H520.5V864.182H557.73V823.352Z" fill="#B2B6BB"/>
<path d="M619.549 823.352H578.719V864.182H619.549V823.352Z" fill="#868A91"/>
<path d="M619.55 823.352H582.32V864.182H619.55V823.352Z" fill="#B2B6BB"/>
<path d="M495.908 945.699H455.078V986.529H495.908V945.699Z" fill="#868A91"/>
<path d="M495.91 945.699H458.68V986.529H495.91V945.699Z" fill="#B2B6BB"/>
<path d="M557.728 945.699H516.898V986.529H557.728V945.699Z" fill="#868A91"/>
<path d="M557.73 945.699H520.5V986.529H557.73V945.699Z" fill="#B2B6BB"/>
<path d="M619.549 945.699H578.719V986.529H619.549V945.699Z" fill="#868A91"/>
<path d="M619.55 945.699H582.32V986.529H619.55V945.699Z" fill="#B2B6BB"/>
<path d="M495.908 1005.81H455.078V1046.64H495.908V1005.81Z" fill="#868A91"/>
<path d="M495.91 1005.81H458.68V1046.64H495.91V1005.81Z" fill="#B2B6BB"/>
<path d="M557.728 1005.81H516.898V1046.64H557.728V1005.81Z" fill="#868A91"/>
<path d="M557.73 1005.81H520.5V1046.64H557.73V1005.81Z" fill="#B2B6BB"/>
<path d="M619.549 1005.81H578.719V1046.64H619.549V1005.81Z" fill="#868A91"/>
<path d="M619.55 1005.81H582.32V1046.64H619.55V1005.81Z" fill="#B2B6BB"/>
<path d="M700.113 722.68H434.453V726.46H700.113V722.68Z" fill="#F4F4F4"/>
<path d="M700.113 910.852H434.453V914.632H700.113V910.852Z" fill="#F4F4F4"/>
<path d="M700.097 570.969H651.797V1080.95H700.097V570.969Z" fill="#B2B6BB"/>
<path opacity="0.2" d="M703.227 562.512H651.797V570.972H703.227V562.512Z" fill="black"/>
<path opacity="0.2" d="M703.227 545.578H651.797V554.038H703.227V545.578Z" fill="black"/>
<path opacity="0.2" d="M697.467 554.059H651.797V562.509H697.467V554.059Z" fill="black"/>
<path d="M1082.67 914.84H868.352V1026.34H1082.67V914.84Z" fill="#1D0000"/>
<path d="M1199.02 807.501H1150.03L1161.05 758.941H1191.67L1199.02 807.501Z" class="change-color-in-svg" fill="#4D61FC" style="fill: rgb(0, 183, 126);"/>
<path opacity="0.3" d="M1199.02 807.501H1150.03L1161.05 758.941H1191.67L1199.02 807.501Z" fill="black"/>
<path d="M1338.32 1032.54H1051.13C1051.13 1032.54 1067.83 938.998 980.321 938.998C902.671 938.998 902.671 1027.45 902.671 1027.45H808.001C808.001 1027.45 793.331 994.888 792.001 957.288C790.941 929.288 797.261 898.548 822.401 876.348L949.401 874.838C949.401 874.838 1009.35 803.578 1022.15 803.578H1317.8C1327.03 803.578 1364.95 843.658 1383.34 863.698L1338.32 1032.54Z" class="change-color-in-svg" fill="#4D61FC" style="fill: rgb(0, 183, 126);"/>
<path opacity="0.2" d="M1338.12 1032.05L1383.4 863.722C1365.01 843.722 1327.09 803.602 1317.86 803.602H1022.21C1009.41 803.602 949.463 874.862 949.463 874.862L822.463 876.372C797.323 898.572 791.003 929.372 792.063 957.312C793.403 994.912 808.063 1027.47 808.063 1027.47H902.693C902.693 1027.47 902.693 939.022 980.343 939.022C1067.85 939.022 1051.15 1032.54 1051.15 1032.54H1338.34" fill="white"/>
<path opacity="0.3" d="M1338.32 1032.54H1051.08C1051.08 1032.54 1067.78 938.999 980.27 938.999C902.61 938.999 902.61 1027.45 902.61 1027.45H808C808 1027.45 793.33 994.889 792 957.289H916.2C916.2 957.289 929.92 931.449 980.3 931.449C1030.68 931.449 1045 961.579 1045 961.579H1357.68L1338.32 1032.54Z" fill="black"/>
<path d="M1045.06 1009.53C1045.06 1048.53 1016.06 1080.05 980.332 1080.05C944.602 1080.05 915.602 1048.48 915.602 1009.53C915.602 970.58 944.602 939.02 980.332 939.02C1016.06 939.02 1045.06 970.59 1045.06 1009.53Z" fill="#21252B"/>
<path d="M1021.39 1009.53C1021.39 1034.24 1003.01 1054.26 980.333 1054.26C957.653 1054.26 939.273 1034.26 939.273 1009.53C939.273 984.801 957.663 964.801 980.333 964.801C1003 964.801 1021.39 984.831 1021.39 1009.53Z" fill="#3F4249"/>
<path d="M1011.19 1009.53C1011.19 1028.1 997.379 1043.15 980.329 1043.15C963.279 1043.15 949.469 1028.1 949.469 1009.53C949.469 990.96 963.289 975.91 980.329 975.91C997.369 975.91 1011.19 991 1011.19 1009.53Z" fill="#B2B6BB"/>
<path d="M1187.74 812.719C1187.38 812.719 1187.02 812.804 1186.7 812.967C1186.37 813.131 1186.09 813.367 1185.87 813.659C1185.66 813.95 1185.51 814.288 1185.45 814.646C1185.39 815.004 1185.41 815.371 1185.51 815.719L1196 871.919C1196.15 872.719 1196.55 873.448 1197.16 873.991C1197.76 874.534 1198.53 874.861 1199.34 874.919H1376.05C1377.58 874.919 1377.9 874.009 1376.76 872.919L1317.15 814.829C1315.8 813.639 1314.1 812.935 1312.3 812.829L1187.74 812.719Z" fill="#DADDDF"/>
<path d="M1254.93 812.719L1234.28 874.859H1215.55L1236.2 812.719H1254.93Z" fill="#F4F4F4"/>
<path d="M1271.38 812.719L1250.72 874.859H1241.35L1262 812.719H1271.38Z" fill="#F4F4F4"/>
<path d="M1311.92 812.719L1296.29 874.859H1289.19L1304.82 812.719H1311.92Z" fill="#F4F4F4"/>
<path d="M1171.73 812.718C1172.5 812.755 1173.22 813.089 1173.74 813.65C1174.26 814.21 1174.54 814.953 1174.52 815.718V871.788C1174.54 872.554 1174.26 873.296 1173.74 873.857C1173.22 874.418 1172.5 874.752 1171.73 874.788H965.731C964.201 874.788 963.831 873.788 964.901 872.628L1017.57 814.808C1018.83 813.535 1020.52 812.767 1022.31 812.648L1171.73 812.718Z" fill="#DADDDF"/>
<path d="M1057.17 812.719L1036.52 874.859H1017.79L1038.44 812.719H1057.17Z" fill="#F4F4F4"/>
<path d="M1139.7 874.859L1160.35 812.719H1130.29L1109.64 874.859H1139.7Z" fill="#F4F4F4"/>
<path d="M1073.62 812.719L1052.97 874.859H1043.59L1064.24 812.719H1073.62Z" fill="#F4F4F4"/>
<path d="M797.852 939C797.852 939 798.772 911.22 816.392 891H841.392C841.392 891 848.002 939.51 797.852 939Z" fill="#DADDDF"/>
<path opacity="0.7" d="M841.432 891C809.902 900.1 797.852 939 797.852 939C797.852 939 798.772 911.22 816.392 891H841.432Z" fill="white"/>
<path opacity="0.3" d="M1369.46 915.518L1295.56 915.828L1173.49 916.018L1051.42 915.808L944.93 915.328L841 914.468L944.9 913.628L1051.39 913.178L1173.46 912.988L1295.53 913.198L1369.97 913.528L1369.46 915.518Z" fill="black"/>
<path opacity="0.3" d="M1198 1018.5L1192.34 896.09L1200.78 1018.27L1198 1018.5Z" fill="black"/>
<path opacity="0.2" d="M1341.7 1019.7C1308.32 1019.78 1274.94 1019.84 1241.55 1019.88L1078.03 1019.54H1077.43L1077.13 1018.99L1039.74 952.06L1002.6 885L1040.89 951.33L1078.89 1017.82L1077.99 1017.27L1241.51 1016.93C1275.18 1017.03 1308.85 1017.03 1342.51 1017.11L1341.7 1019.7Z" fill="black"/>
<path d="M1160.67 943.057H1150.37V971.641H1146.16V943.057H1135.88V939.577H1160.67V943.057ZM1181.37 963.272H1167.94L1164.92 971.641H1160.56L1172.81 939.577H1176.51L1188.77 971.641H1184.43L1181.37 963.272ZM1169.22 959.793H1180.12L1174.66 944.796L1169.22 959.793ZM1203.55 951.865L1211.23 939.577H1216.21L1206.08 955.477L1216.45 971.641H1211.43L1203.55 959.132L1195.62 971.641H1190.62L1201.02 955.477L1190.86 939.577H1195.82L1203.55 951.865ZM1225.9 971.641H1221.67V939.577H1225.9V971.641Z" fill="black"/>
<path d="M1354.65 970.589H1258.1V957.289H1358.41L1354.65 970.589Z" fill="#21272F"/>
<path d="M1125.25 957.289H1052.17V970.589H1125.25V957.289Z" fill="#21272F"/>
<path d="M904.886 957.289H803.406V970.589H904.886V957.289Z" fill="#21272F"/>
<path opacity="0.3" d="M1185.45 905.361H1021.39L1011.19 884.961H1185.45V905.361Z" fill="white"/>
<path opacity="0.3" d="M1372.2 905.361H1200.78V884.961H1377.68L1372.2 905.361Z" fill="white"/>
<path opacity="0.3" d="M851.289 905.358H1007.81L994.439 887.238L851.289 905.358Z" fill="white"/>
<path opacity="0.3" d="M913.34 951C913.34 951 939.27 915.33 1021.34 929.22L1015.83 918H841L913.34 951Z" fill="white"/>
<path opacity="0.3" d="M1027.49 920.34H1185.45V928.67H1032.28L1027.49 920.34Z" fill="white"/>
<path opacity="0.3" d="M1365.56 930.04H1199.02V920.34H1368.28L1365.56 930.04Z" fill="white"/>
<path d="M190 1081.05H1348.12" stroke="#B2B6BB" stroke-width="2.01" stroke-miterlimit="10" stroke-linecap="round"/>
<path d="M1290.12 193.859C1283.24 190.432 1275.77 188.322 1268.12 187.639L1267.12 187.559V1080.05H1290.12V193.859Z" fill="#61656D"/>
<path d="M1258.12 223.148H1180.01V447.938H1258.12V223.148Z" fill="#B2B6BB"/>
<path opacity="0.3" d="M1258.12 223.148H1180.01V447.938H1258.12V223.148Z" fill="black"/>
<path d="M1247.03 455.051L1258.03 448.051L1247.12 446.051L1247.03 455.051Z" fill="#B2B6BB"/>
<path opacity="0.3" d="M1247.03 455.051L1258.03 448.051L1247.12 446.051L1247.03 455.051Z" fill="black"/>
<path d="M1247.23 230.148H1169.12V454.938H1247.23V230.148Z" fill="#B2B6BB"/>
<path d="M1267.12 243.051H1251.12V271.051H1267.12V243.051Z" fill="#61656D"/>
<path d="M1267.12 415.051H1251.12V443.051H1267.12V415.051Z" fill="#61656D"/>
<path d="M1207.74 301.75C1221.64 301.75 1232.91 290.481 1232.91 276.58C1232.91 262.679 1221.64 251.41 1207.74 251.41C1193.84 251.41 1182.57 262.679 1182.57 276.58C1182.57 290.481 1193.84 301.75 1207.74 301.75Z" fill="white"/>
<path d="M1207.74 367.719C1221.64 367.719 1232.91 356.45 1232.91 342.549C1232.91 328.648 1221.64 317.379 1207.74 317.379C1193.84 317.379 1182.57 328.648 1182.57 342.549C1182.57 356.45 1193.84 367.719 1207.74 367.719Z" class="change-color-in-svg" fill="#4D61FC" style="fill: rgb(0, 183, 126);"/>
<path d="M1208.61 433.68C1222.51 433.68 1233.78 422.411 1233.78 408.51C1233.78 394.609 1222.51 383.34 1208.61 383.34C1194.71 383.34 1183.44 394.609 1183.44 408.51C1183.44 422.411 1194.71 433.68 1208.61 433.68Z" class="change-color-in-svg" fill="#4D61FC" style="fill: rgb(0, 183, 126);"/>
<path opacity="0.7" d="M1208.61 433.68C1222.51 433.68 1233.78 422.411 1233.78 408.51C1233.78 394.609 1222.51 383.34 1208.61 383.34C1194.71 383.34 1183.44 394.609 1183.44 408.51C1183.44 422.411 1194.71 433.68 1208.61 433.68Z" fill="white"/>
<path opacity="0.1" d="M1225.1 258.398C1232.44 273.688 1222.7 302.288 1197.32 299.558C1197.92 299.838 1198.54 300.098 1199.18 300.328C1204.62 302.311 1210.58 302.358 1216.05 300.461C1221.52 298.564 1226.17 294.84 1229.21 289.915C1232.25 284.991 1233.51 279.167 1232.76 273.426C1232.01 267.685 1229.31 262.378 1225.1 258.398V258.398Z" fill="black"/>
<path opacity="0.15" d="M1224 323.102C1232.07 338.022 1223.72 367.052 1198.23 365.552C1198.85 365.802 1199.48 366.032 1200.13 366.232C1205.66 367.95 1211.61 367.71 1216.98 365.552C1222.35 363.394 1226.82 359.449 1229.62 354.384C1232.42 349.318 1233.39 343.441 1232.37 337.743C1231.35 332.045 1228.39 326.874 1224 323.102V323.102Z" fill="black"/>
<path opacity="0.1" d="M1228 392.469C1233.3 408.579 1220 435.679 1195.13 429.699C1195.7 430.049 1196.28 430.389 1196.88 430.699C1202.02 433.368 1207.92 434.184 1213.59 433.01C1219.26 431.835 1224.35 428.743 1228.01 424.253C1231.66 419.763 1233.66 414.15 1233.66 408.36C1233.66 402.57 1231.66 396.958 1228 392.469V392.469Z" fill="black"/>
<path opacity="0.3" d="M1281.66 190.41L1283.65 1079.97L1290.12 1080.05V194.05L1281.66 190.41Z" fill="black"/>
<path d="M1251.12 243.051L1256.12 239.051H1267.12V243.051H1251.12Z" fill="#61656D"/>
<path opacity="0.5" d="M1251.12 243.051L1256.12 239.051H1267.12V243.051H1251.12Z" fill="white"/>
<path d="M1251.12 415.051L1256.12 411.051H1267.12V415.051H1251.12Z" fill="#61656D"/>
<path opacity="0.5" d="M1251.12 415.051L1256.12 411.051H1267.12V415.051H1251.12Z" fill="white"/>
<path d="M1169.12 230.051L1180.12 223.051H1258.12L1247.12 230.051H1169.12Z" fill="#B2B6BB"/>
<path opacity="0.5" d="M1169.12 230.051L1180.12 223.051H1258.12L1247.12 230.051H1169.12Z" fill="white"/>
<path d="M593.352 527.621L597.772 532.421C598.459 533.373 598.775 534.543 598.662 535.711L598.102 541.601L594.252 536.181L593.352 527.621Z" class="change-color-in-svg" fill="#4D61FC" style="fill: rgb(0, 183, 126);"/>
<path d="M661.29 1046.25L653.18 1020.82L685.76 1014.68L689.52 1032.42L661.29 1046.25Z" fill="white"/>
<path opacity="0.15" d="M661.797 1020C661.797 1020 666.007 1034 676.187 1037.33L667.997 1046.7L659.237 1040.7L653.117 1019.7L661.797 1020Z" fill="black"/>
<path d="M724.807 1046.21C724.807 1046.21 739.167 1044.93 746.307 1044.91C753.447 1044.89 756.307 1053.31 756.307 1053.31C756.307 1053.31 745.967 1064.68 717.307 1068.2C698.587 1070.28 681.447 1074.41 662.817 1071.64V1071.57C661.961 1068 661.482 1064.34 661.387 1060.67C661.167 1054.12 659.467 1046.14 657.047 1041.08C668.897 1041.08 680.097 1036.63 690.677 1031.29L691.677 1030.8L724.807 1046.21Z" fill="#3F4249"/>
<path d="M724.812 1046.21C724.812 1046.21 726.412 1050.21 717.552 1048.21L690.003 1034C689.582 1033.78 689.23 1033.44 688.984 1033.04C688.739 1032.63 688.609 1032.16 688.609 1031.69C688.609 1031.21 688.739 1030.74 688.984 1030.33C689.23 1029.93 689.582 1029.59 690.003 1029.37V1029.37C690.379 1029.17 690.798 1029.07 691.222 1029.07C691.647 1029.07 692.066 1029.17 692.443 1029.37L724.812 1046.21Z" fill="#3F4249"/>
<path opacity="0.3" d="M724.812 1046.21C724.812 1046.21 726.412 1050.21 717.552 1048.21L690.003 1034C689.582 1033.78 689.23 1033.44 688.984 1033.04C688.739 1032.63 688.609 1032.16 688.609 1031.69C688.609 1031.21 688.739 1030.74 688.984 1030.33C689.23 1029.93 689.582 1029.59 690.003 1029.37V1029.37C690.379 1029.17 690.798 1029.07 691.222 1029.07C691.647 1029.07 692.066 1029.17 692.443 1029.37L724.812 1046.21Z" fill="black"/>
<path d="M713.401 1068.73C695.131 1070.42 661.891 1071.73 661.891 1071.73L663.501 1080.4L686.091 1078.4L685.681 1076.27C685.681 1076.27 707.681 1077.04 719.121 1074.88L721.861 1074.35C731.461 1072.41 749.471 1065.76 757.531 1060.2L756.261 1053.39C747.621 1061.64 733.001 1066 713.401 1068.73Z" fill="#21252B"/>
<path d="M431.023 1009.05L443.053 987.449L469.523 1009.5L459.843 1023.07L431.023 1009.05Z" fill="white"/>
<path opacity="0.15" d="M449.393 992.738C449.393 992.738 441.693 1004.74 446.173 1014.74L431.023 1007.54L443.353 987.328L449.393 992.738Z" fill="black"/>
<path d="M470.52 1052.68C470.52 1052.68 484.52 1058.68 489.52 1061.68C495.65 1065.35 492.67 1073.83 492.67 1073.83C492.67 1073.83 459.26 1077.11 449.99 1066.22C436.17 1053.43 421.83 1043.16 411.75 1027.22V1027.16C413.891 1024.18 416.337 1021.43 419.05 1018.95C423.87 1014.49 428.79 1007.95 431.05 1002.85C438.83 1011.79 449.5 1017.37 460.45 1021.85L461.45 1022.27L470.52 1052.68Z" fill="#3F4249"/>
<path d="M469.312 1049C469.312 1049 467.312 1052.83 463.062 1044.79L458.062 1023.17C457.953 1022.71 457.972 1022.22 458.117 1021.77C458.262 1021.32 458.528 1020.91 458.885 1020.6C459.243 1020.29 459.679 1020.08 460.147 1019.99C460.615 1019.91 461.097 1019.95 461.542 1020.12V1020.12C461.94 1020.27 462.294 1020.52 462.575 1020.84C462.855 1021.16 463.053 1021.55 463.152 1021.96L469.312 1049Z" fill="#3F4249"/>
<path opacity="0.3" d="M469.312 1049C469.312 1049 467.312 1052.83 463.062 1044.79L458.062 1023.17C457.953 1022.71 457.972 1022.22 458.117 1021.77C458.262 1021.32 458.528 1020.91 458.885 1020.6C459.243 1020.29 459.679 1020.08 460.147 1019.99C460.615 1019.91 461.097 1019.95 461.542 1020.12V1020.12C461.94 1020.27 462.294 1020.52 462.575 1020.84C462.855 1021.16 463.053 1021.55 463.152 1021.96L469.312 1049Z" fill="black"/>
<path d="M446.998 1063.61C433.768 1050.9 411.078 1026.61 411.078 1026.61L405.578 1033.5L421.888 1049.26L423.228 1047.56C423.228 1047.56 437.018 1064.68 446.148 1071.94C447.713 1073.17 449.443 1074.18 451.288 1074.94C466.928 1081.32 480.348 1079.84 491.218 1079.67L492.638 1073.85C480.718 1072.74 461.908 1076.62 446.998 1063.61Z" fill="#21252B"/>
<path d="M692.521 1018.68L660.791 851.271L654.471 829.87L605.991 707.57L592.221 699.98L545.531 731.5L606.811 866.48L651.071 1028.38L692.521 1020.68" class="change-color-in-svg" fill="#4D61FC" style="fill: rgb(0, 183, 126);"/>
<path d="M434.398 991.521L511.338 875.141C517.372 866.017 520.652 855.349 520.788 844.411C521.068 822.631 520.978 784.921 517.788 762.311C513.108 729.091 519.968 718.621 519.968 718.621L593.358 731.111L580.358 856.341C579.288 866.787 575.357 876.735 568.998 885.091L469.848 1014.93L434.398 991.521Z" class="change-color-in-svg" fill="#4D61FC" style="fill: rgb(0, 183, 126);"/>
<path opacity="0.3" d="M588.593 742.541C588.616 742.435 588.661 742.334 588.724 742.246C588.788 742.157 588.87 742.083 588.964 742.028C589.058 741.972 589.162 741.937 589.27 741.924C589.379 741.911 589.488 741.92 589.593 741.952V741.952C589.786 741.99 589.958 742.097 590.078 742.254C590.198 742.41 590.256 742.605 590.243 742.801L591.773 803.202V833.262L584.383 818.072C584.593 801.902 587.843 752.071 588.603 742.731C588.589 742.669 588.586 742.605 588.593 742.541Z" fill="black"/>
<path d="M689.918 762.189L673.058 744.859C672.73 744.52 672.547 744.066 672.547 743.594C672.547 743.122 672.73 742.669 673.058 742.329L704.668 710.089C704.829 709.924 705.021 709.792 705.233 709.703C705.445 709.613 705.673 709.566 705.903 709.566C706.134 709.566 706.362 709.613 706.574 709.703C706.786 709.792 706.978 709.924 707.138 710.089L723.998 727.429C724.326 727.769 724.51 728.222 724.51 728.694C724.51 729.166 724.326 729.62 723.998 729.959L692.388 762.199C692.227 762.364 692.035 762.495 691.822 762.584C691.61 762.673 691.382 762.718 691.151 762.717C690.921 762.716 690.693 762.669 690.481 762.578C690.269 762.488 690.078 762.355 689.918 762.189V762.189Z" fill="#21252B"/>
<path opacity="0.8" d="M694.11 756.12L679 740.6L705.25 713.82L720.36 729.35L694.11 756.12Z" fill="white"/>
<path d="M684.231 752.81C685.251 752.751 686.029 751.858 685.968 750.816C685.907 749.774 685.031 748.977 684.011 749.037C682.991 749.096 682.213 749.989 682.274 751.031C682.335 752.073 683.211 752.87 684.231 752.81Z" fill="#868A91"/>
<path d="M710.648 716.828L716.428 722.528" stroke="#868A91" stroke-width="0.63" stroke-miterlimit="10" stroke-linecap="round"/>
<path d="M668.258 724.081L675.998 739.771L690.478 725.071L703.938 724.071C703.938 724.071 712.608 726.201 715.448 720.691C715.529 720.544 715.571 720.38 715.572 720.212C715.573 720.045 715.531 719.88 715.452 719.732C715.372 719.585 715.257 719.46 715.116 719.369C714.976 719.278 714.815 719.223 714.648 719.211C711.648 718.841 704.028 717.751 698.888 715.551L679.888 711.551L668.758 713.821L668.258 724.081Z" fill="#FC9D9D"/>
<g opacity="0.15">
<path opacity="0.15" d="M706.553 734.001L717.463 736.151C718.079 736.274 718.636 736.602 719.043 737.081C719.311 737.394 719.506 737.763 719.613 738.16C719.721 738.558 719.738 738.974 719.665 739.379C719.591 739.785 719.428 740.168 719.187 740.503C718.946 740.837 718.634 741.113 718.273 741.311V741.311C717.558 741.706 716.766 741.942 715.952 742.004C715.138 742.067 714.32 741.953 713.553 741.671L702.103 737.431C701.821 737.334 701.576 737.154 701.397 736.915C701.219 736.676 701.117 736.389 701.103 736.091C701.091 735.814 701.157 735.539 701.293 735.296C701.429 735.054 701.63 734.855 701.873 734.721C703.297 733.931 704.957 733.676 706.553 734.001Z" fill="black"/>
<path opacity="0.15" d="M703.609 738.362L714.999 743.492C715.591 743.703 716.098 744.104 716.439 744.632C716.658 744.98 716.798 745.372 716.849 745.779C716.899 746.187 716.858 746.601 716.729 746.992C716.599 747.382 716.385 747.738 716.102 748.036C715.818 748.334 715.472 748.565 715.089 748.712V748.712C714.328 749.008 713.512 749.135 712.697 749.085C711.882 749.035 711.088 748.809 710.369 748.422L698.779 741.152C698.52 741.012 698.308 740.799 698.169 740.54C698.03 740.28 697.971 739.985 697.999 739.692V739.692C698.025 739.416 698.128 739.153 698.296 738.932C698.464 738.711 698.69 738.542 698.949 738.442C700.445 737.871 702.094 737.843 703.609 738.362V738.362Z" fill="black"/>
<path opacity="0.15" d="M699.299 742.161L709.999 748.541C710.569 748.81 711.031 749.265 711.309 749.831V749.831C711.49 750.202 711.585 750.608 711.589 751.02C711.593 751.433 711.505 751.841 711.332 752.215C711.159 752.59 710.905 752.921 710.587 753.185C710.27 753.448 709.899 753.638 709.499 753.741C708.71 753.943 707.886 753.974 707.084 753.831C706.281 753.688 705.519 753.374 704.849 752.911L694.149 744.391C693.908 744.221 693.722 743.985 693.614 743.712C693.506 743.438 693.479 743.139 693.539 742.851V742.851C693.597 742.579 693.73 742.33 693.923 742.13C694.116 741.931 694.36 741.789 694.629 741.721V741.721C696.189 741.316 697.842 741.471 699.299 742.161Z" fill="black"/>
<path opacity="0.15" d="M695.591 745.552L702.021 752.692C702.375 753.023 702.607 753.463 702.681 753.942C702.73 754.256 702.709 754.577 702.619 754.882C702.528 755.187 702.371 755.468 702.158 755.705C701.946 755.942 701.683 756.128 701.389 756.25C701.096 756.372 700.778 756.428 700.461 756.412V756.412C699.831 756.387 699.214 756.226 698.653 755.939C698.092 755.653 697.6 755.247 697.211 754.752L691.281 746.002C691.138 745.825 691.053 745.609 691.035 745.382C691.017 745.156 691.068 744.929 691.181 744.732V744.732C691.285 744.545 691.439 744.39 691.627 744.286C691.814 744.182 692.027 744.132 692.241 744.142V744.142C693.489 744.202 694.676 744.701 695.591 745.552V745.552Z" fill="black"/>
</g>
<path d="M707.998 734.569L718.918 736.729C719.535 736.85 720.092 737.178 720.498 737.659V737.659C720.766 737.971 720.961 738.34 721.068 738.738C721.176 739.135 721.193 739.552 721.12 739.957C721.046 740.362 720.883 740.746 720.642 741.08C720.401 741.414 720.089 741.69 719.728 741.889V741.889C719.013 742.283 718.222 742.52 717.407 742.582C716.593 742.644 715.775 742.53 715.008 742.249L703.548 737.999C703.268 737.902 703.023 737.723 702.845 737.486C702.667 737.249 702.564 736.965 702.548 736.669C702.537 736.391 702.603 736.117 702.739 735.875C702.875 735.633 703.076 735.433 703.318 735.299C704.743 734.511 706.401 734.253 707.998 734.569V734.569Z" fill="#FC9D9D"/>
<path d="M705.057 738.911L716.397 744.001C716.994 744.198 717.503 744.598 717.837 745.131C718.06 745.478 718.203 745.871 718.255 746.28C718.307 746.69 718.267 747.106 718.138 747.498C718.008 747.89 717.793 748.248 717.507 748.546C717.222 748.844 716.873 749.075 716.487 749.221V749.221C715.726 749.516 714.91 749.644 714.095 749.593C713.28 749.543 712.486 749.317 711.767 748.931L700.177 741.661C699.919 741.52 699.707 741.307 699.569 741.047C699.43 740.788 699.37 740.494 699.397 740.201C699.428 739.919 699.539 739.653 699.716 739.431C699.893 739.21 700.129 739.044 700.397 738.951V738.951C701.898 738.395 703.546 738.381 705.057 738.911V738.911Z" fill="#FC9D9D"/>
<path d="M700.75 742.708L711.441 749.078C712.008 749.348 712.467 749.803 712.74 750.368C712.921 750.739 713.017 751.144 713.022 751.556C713.027 751.968 712.94 752.376 712.767 752.75C712.595 753.124 712.342 753.455 712.026 753.72C711.71 753.984 711.339 754.175 710.94 754.278C710.152 754.486 709.328 754.521 708.525 754.379C707.723 754.238 706.96 753.924 706.29 753.458L695.591 744.928C695.347 744.764 695.158 744.531 695.049 744.258C694.94 743.985 694.916 743.685 694.98 743.398V743.398C695.037 743.127 695.167 742.876 695.358 742.674C695.549 742.473 695.792 742.329 696.06 742.258V742.258C697.628 741.853 699.288 742.013 700.75 742.708V742.708Z" fill="#FC9D9D"/>
<path d="M696.998 746.099L703.428 753.239C703.782 753.57 704.015 754.01 704.088 754.489V754.489C704.142 754.803 704.125 755.126 704.038 755.433C703.952 755.74 703.798 756.023 703.589 756.264C703.379 756.504 703.119 756.695 702.826 756.822C702.534 756.949 702.217 757.01 701.898 756.999V756.999C701.27 756.97 700.655 756.805 700.096 756.517C699.537 756.229 699.047 755.824 698.658 755.329L692.718 746.599C692.581 746.42 692.498 746.204 692.48 745.979C692.462 745.754 692.51 745.528 692.618 745.329V745.329C692.724 745.143 692.879 744.99 693.066 744.886C693.253 744.782 693.464 744.731 693.678 744.739V744.739C694.909 744.794 696.082 745.275 696.998 746.099V746.099Z" fill="#FC9D9D"/>
<path opacity="0.15" d="M674.539 736.83L689.099 725.21L690.469 725.07L675.989 739.77L674.539 736.83Z" fill="black"/>
<path d="M595.859 667.009L669.259 730.179L686.279 711.399L609.989 626.789L595.859 667.009Z" fill="#21252B"/>
<path opacity="0.15" d="M631.123 697.051L627.073 646.151L619.123 638.051L611.133 680.351L631.123 697.051Z" fill="black"/>
<path d="M558.82 451.709L558 483.459L552 515.669L594 535.519L591.18 504.589L599.61 506.589C599.93 506.659 600.25 506.729 600.61 506.779C603.542 507.23 606.533 506.498 608.925 504.745C611.318 502.992 612.917 500.36 613.37 497.429L615.17 485.679L619.01 484.209C619.082 484.183 619.152 484.153 619.22 484.119C619.48 483.985 619.711 483.801 619.899 483.576C620.086 483.352 620.227 483.092 620.313 482.813C620.399 482.533 620.428 482.239 620.398 481.948C620.368 481.657 620.281 481.375 620.14 481.119L615 471.489V470.919L615.45 469.559C617.348 463.832 617.622 457.691 616.24 451.819L614.88 446.059L558.82 451.709Z" fill="#FC9D9D"/>
<path d="M615.879 448.91L599.379 453.32C598.604 453.487 597.892 453.874 597.33 454.435C596.768 454.995 596.379 455.705 596.209 456.48L595.539 459.43C594.749 463.31 591.919 464.96 587.969 465.43L583.969 465.65L583.059 472.88C582.991 473.368 582.754 473.817 582.388 474.148C582.023 474.479 581.552 474.671 581.059 474.69V474.69C580.529 474.69 580.02 474.479 579.645 474.104C579.27 473.729 579.059 473.22 579.059 472.69V469.98L569.699 470.98L568.339 478.56C565.099 484.77 557.709 485.34 557.709 485.34C553.309 471.21 547.309 453.85 551.839 440.14L551.959 439.8C553.499 435.02 560.429 431.21 567.209 432.91C569.699 433.58 571.209 430.99 572.069 430.2C575.689 424.55 587.539 422.85 594.439 427.15L598.849 430.2C602.429 432 606.379 430.99 610.449 430.53C621.219 429 626.919 443.69 615.879 448.91Z" fill="#21252B"/>
<path d="M618.531 749.2C619.542 749.194 620.54 748.977 621.462 748.561C622.383 748.146 623.207 747.541 623.88 746.787C624.553 746.033 625.06 745.146 625.369 744.184C625.678 743.221 625.781 742.204 625.671 741.2L624.201 735.63C623.056 731.265 622.188 726.833 621.601 722.36L619.111 703.26C616.811 687.26 617.571 670.32 618.701 654.19L618.761 653.36C619.113 648.257 619.17 643.139 618.931 638.03C618.621 630.69 618.591 623.34 618.931 616.03C619.821 594.03 617.121 577.47 606.271 557.03L593.131 533.42H591.001C581.131 529.25 575.281 523.27 567.611 515.79L554.611 503.02L536.541 520.56C528.854 528.11 522.948 537.28 519.253 547.402C515.558 557.524 514.167 568.342 515.181 579.07L523.761 669.92C524.06 672.968 524.023 676.039 523.651 679.08L515.071 749.85L618.531 749.2Z" fill="#21252B"/>
<path opacity="0.15" d="M592.339 516.159L582.849 504.629C582.654 504.388 582.543 504.089 582.532 503.779C582.522 503.468 582.612 503.163 582.791 502.909C582.969 502.655 583.226 502.466 583.521 502.37C583.817 502.275 584.135 502.278 584.429 502.379L591.209 504.489L592.339 516.159Z" fill="black"/>
<path opacity="0.15" d="M517.763 606.619L529.223 554.149C529.323 553.659 529.023 550.779 528.523 550.679C528.023 550.579 526.633 553.179 526.523 553.679L516.523 595.679L517.763 606.619Z" fill="black"/>
<path opacity="0.15" d="M540.053 670.278L562.673 611.828L579.003 571.148L545.533 675.318L531.843 749.848L521.453 749.468L540.053 670.278Z" fill="black"/>
<path opacity="0.15" d="M562.852 483.809L571.442 482.679C570.255 481.459 569.23 480.091 568.392 478.609C567.869 479.806 567.108 480.884 566.156 481.778C565.203 482.672 564.079 483.363 562.852 483.809V483.809Z" fill="black"/>
<path d="M609.971 474.441C611.219 474.441 612.231 473.326 612.231 471.951C612.231 470.576 611.219 469.461 609.971 469.461C608.723 469.461 607.711 470.576 607.711 471.951C607.711 473.326 608.723 474.441 609.971 474.441Z" fill="#21252B"/>
<path d="M611.207 471.258C611.395 471.258 611.547 471.106 611.547 470.918C611.547 470.73 611.395 470.578 611.207 470.578C611.019 470.578 610.867 470.73 610.867 470.918C610.867 471.106 611.019 471.258 611.207 471.258Z" fill="white"/>
<path opacity="0.2" d="M531.52 749.68L521.45 823.68C521.45 823.68 519.51 768.27 518 764V749.71L531.52 749.68Z" fill="black"/>
<path d="M556.309 815.621C556.309 815.621 558.309 815.491 558.569 820.381C558.829 825.271 562.779 889.791 563.029 893.811C563.029 893.83 563.024 893.849 563.015 893.866C563.006 893.882 562.993 893.896 562.977 893.907C562.962 893.918 562.944 893.925 562.925 893.927C562.906 893.93 562.887 893.928 562.869 893.921C562.559 893.831 561.869 893.921 561.609 896.021C561.606 896.04 561.599 896.057 561.588 896.073C561.577 896.088 561.563 896.1 561.547 896.109C561.53 896.118 561.512 896.123 561.493 896.123C561.474 896.123 561.456 896.119 561.439 896.111C561.179 895.961 560.589 895.941 560.049 898.111C560.045 898.129 560.037 898.145 560.026 898.159C560.014 898.173 560 898.185 559.983 898.192C559.967 898.2 559.949 898.204 559.931 898.204C559.913 898.204 559.895 898.199 559.879 898.191C559.569 897.991 558.759 897.801 558.129 900.581C558.126 900.603 558.117 900.623 558.103 900.64C558.089 900.657 558.071 900.669 558.05 900.676C558.03 900.684 558.007 900.685 557.986 900.681C557.965 900.676 557.945 900.666 557.929 900.651C557.629 900.341 556.829 900.131 555.539 904.181L556.309 815.621Z" fill="#21252B"/>
<path d="M545.129 908.621H445.589C442.629 908.621 439.791 907.445 437.698 905.352C435.605 903.26 434.429 900.421 434.429 897.461V815.631H556.289V897.451C556.289 900.411 555.113 903.25 553.02 905.342C550.927 907.435 548.089 908.611 545.129 908.611V908.621Z" fill="#3F4249"/>
<path opacity="0.2" d="M545.129 908.621H445.589C442.629 908.621 439.791 907.445 437.698 905.352C435.605 903.26 434.429 900.421 434.429 897.461V815.631H556.289V897.451C556.289 900.411 555.113 903.25 553.02 905.342C550.927 907.435 548.089 908.611 545.129 908.611V908.621Z" fill="black"/>
<path d="M441.93 873.771L547.45 873.621C548.617 873.62 549.772 873.389 550.85 872.94C551.927 872.492 552.906 871.836 553.73 871.01C554.554 870.183 555.206 869.202 555.651 868.123C556.095 867.044 556.323 865.888 556.32 864.721L556.41 815.531L433 815.711V864.901C433.001 866.071 433.234 867.228 433.684 868.308C434.134 869.387 434.792 870.367 435.622 871.192C436.452 872.016 437.436 872.668 438.519 873.111C439.601 873.553 440.76 873.778 441.93 873.771V873.771Z" fill="#3F4249"/>
<path d="M446.211 870.072C443.592 870.079 441.076 869.051 439.211 867.212C438.278 866.301 437.537 865.212 437.032 864.01C436.527 862.807 436.268 861.516 436.271 860.212L436.211 815.682H439.811L439.881 860.222C439.881 861.042 440.045 861.855 440.365 862.61C440.684 863.366 441.152 864.05 441.741 864.622C442.942 865.8 444.559 866.458 446.241 866.452L543.171 866.312C544.841 866.322 546.447 865.671 547.638 864.499C548.828 863.327 549.505 861.732 549.521 860.062L549.601 815.512H553.201L553.131 860.052C553.122 861.355 552.856 862.644 552.348 863.845C551.841 865.046 551.101 866.135 550.172 867.049C549.244 867.964 548.144 868.687 546.936 869.176C545.727 869.666 544.435 869.912 543.131 869.902L446.201 870.042L446.211 870.072Z" class="change-color-in-svg" fill="#4D61FC" style="fill: rgb(0, 183, 126);"/>
<path d="M501.467 873.691H486.717V869.231C486.717 868.889 486.852 868.561 487.094 868.319C487.336 868.077 487.664 867.941 488.007 867.941H500.187C500.529 867.941 500.857 868.077 501.099 868.319C501.341 868.561 501.477 868.889 501.477 869.231V873.691H501.467Z" fill="#868A91"/>
<path d="M499.999 882.73H488.189C487.799 882.73 487.425 882.576 487.149 882.3C486.874 882.024 486.719 881.65 486.719 881.26V873.69H501.469V881.26C501.469 881.65 501.314 882.024 501.038 882.3C500.763 882.576 500.389 882.73 499.999 882.73V882.73Z" fill="#868A91"/>
<path d="M498.799 880.059H501.469V876.349H498.799V880.059Z" fill="#B2B6BB"/>
<path d="M486.721 880.078H489.391V876.368H486.721V880.078Z" fill="#B2B6BB"/>
<path d="M464.621 814.128C464.388 813.855 464.216 813.535 464.116 813.19C464.016 812.846 463.99 812.484 464.041 812.128L464.821 807.758C464.864 807.406 464.983 807.067 465.172 806.767C465.36 806.466 465.612 806.211 465.911 806.018C466.183 805.846 466.49 805.736 466.81 805.696C467.13 805.657 467.454 805.688 467.761 805.788L476.05 808.548C476.341 808.645 476.61 808.799 476.84 809.002C477.07 809.205 477.258 809.452 477.391 809.728C477.54 810.027 477.628 810.352 477.65 810.685C477.672 811.018 477.628 811.352 477.52 811.668L476.941 813.328C476.793 813.782 476.507 814.177 476.123 814.461C475.74 814.744 475.277 814.9 474.8 814.908H466.291C465.973 814.905 465.659 814.833 465.371 814.699C465.083 814.564 464.827 814.37 464.621 814.128V814.128ZM466.981 807.708C466.929 807.748 466.886 807.8 466.857 807.859C466.827 807.918 466.812 807.982 466.811 808.048L466.031 812.428C466.02 812.493 466.024 812.56 466.041 812.624C466.058 812.688 466.089 812.747 466.131 812.798C466.149 812.824 466.173 812.845 466.201 812.861C466.228 812.876 466.259 812.886 466.291 812.888H474.8C474.9 812.888 474.991 812.798 475.041 812.668L475.621 810.998C475.67 810.873 475.67 810.733 475.621 810.608C475.604 810.571 475.581 810.538 475.552 810.511C475.523 810.483 475.488 810.462 475.451 810.448L467.161 807.688H467.11L466.981 807.708Z" fill="#868A91"/>
<path d="M511.536 813.329L510.936 811.669C510.823 811.357 510.774 811.025 510.793 810.693C510.812 810.361 510.898 810.037 511.046 809.739C511.182 809.458 511.373 809.207 511.609 809.003C511.844 808.798 512.119 808.644 512.416 808.549L520.546 805.779C520.861 805.681 521.193 805.652 521.519 805.695C521.846 805.738 522.159 805.852 522.436 806.029C522.719 806.209 522.961 806.445 523.145 806.725C523.329 807.004 523.453 807.319 523.506 807.649L524.796 811.999V812.149C524.85 812.505 524.826 812.868 524.726 813.213C524.625 813.558 524.452 813.878 524.216 814.149C524.001 814.396 523.735 814.594 523.436 814.731C523.138 814.867 522.814 814.938 522.486 814.939H513.676C513.197 814.924 512.735 814.761 512.352 814.472C511.969 814.184 511.684 813.785 511.536 813.329V813.329ZM521.536 808.159V808.009C521.532 807.953 521.515 807.898 521.485 807.849C521.456 807.8 521.415 807.759 521.366 807.729C521.337 807.714 521.305 807.705 521.271 807.705C521.238 807.705 521.206 807.714 521.176 807.729L513.056 810.499C512.97 810.528 512.899 810.589 512.856 810.669C512.812 810.785 512.812 810.914 512.856 811.029L513.456 812.689C513.476 812.753 513.514 812.81 513.565 812.853C513.617 812.896 513.68 812.922 513.746 812.929H522.556C522.599 812.927 522.64 812.916 522.678 812.897C522.716 812.878 522.749 812.852 522.776 812.819C522.846 812.739 522.882 812.635 522.876 812.529L521.536 808.159Z" fill="#868A91"/>
<path d="M493.213 877.461C493.2 877.271 493.241 877.081 493.332 876.914C493.423 876.747 493.559 876.609 493.726 876.516C493.892 876.424 494.082 876.381 494.272 876.392C494.462 876.404 494.644 876.47 494.798 876.581C494.952 876.693 495.071 876.847 495.141 877.024C495.211 877.201 495.229 877.394 495.193 877.581C495.156 877.768 495.068 877.94 494.937 878.079C494.806 878.217 494.638 878.315 494.453 878.361V879.881H493.863V878.361C493.678 878.292 493.518 878.169 493.402 878.009C493.286 877.849 493.221 877.658 493.213 877.461Z" fill="#262626"/>
<path d="M523.161 815.621H513.321V813.811C513.321 813.546 513.426 813.292 513.614 813.104C513.801 812.916 514.056 812.811 514.321 812.811H522.211C522.476 812.811 522.73 812.916 522.918 813.104C523.106 813.292 523.211 813.546 523.211 813.811V815.621H523.161Z" fill="#3F4249"/>
<path d="M475.442 815.621H465.602V813.811C465.602 813.546 465.708 813.292 465.895 813.104C466.083 812.916 466.337 812.811 466.602 812.811H474.492C474.757 812.811 475.012 812.916 475.199 813.104C475.387 813.292 475.492 813.546 475.492 813.811V815.621H475.442Z" fill="#3F4249"/>
<path d="M512.111 810.061C507.781 807.911 492.431 801.551 476.681 810.001C476.271 810.217 475.822 810.35 475.36 810.391C474.898 810.432 474.433 810.381 473.991 810.241L467.821 808.241C467.599 808.17 467.4 808.039 467.247 807.862C467.094 807.685 466.993 807.47 466.955 807.239C466.916 807.009 466.942 806.772 467.03 806.555C467.118 806.339 467.263 806.15 467.451 806.011C473.551 801.401 494.151 788.951 520.921 806.011C521.124 806.143 521.285 806.329 521.386 806.548C521.487 806.768 521.524 807.011 521.493 807.251C521.461 807.49 521.363 807.716 521.209 807.902C521.054 808.088 520.851 808.226 520.621 808.301L514.711 810.181C513.862 810.482 512.929 810.439 512.111 810.061V810.061Z" fill="#3F4249"/>
<path d="M579.117 485.389V470.469C579.117 468.877 578.485 467.351 577.36 466.226C576.235 465.101 574.708 464.469 573.117 464.469V464.469C571.526 464.469 570 465.101 568.875 466.226C567.749 467.351 567.117 468.877 567.117 470.469V473.409C567.117 476.591 568.381 479.644 570.632 481.894C572.882 484.144 575.935 485.409 579.117 485.409V485.389Z" fill="#FC9D9D"/>
<g opacity="0.3">
<path opacity="0.3" d="M576.85 473.632V471.142C576.837 470.09 576.409 469.085 575.661 468.346C574.912 467.606 573.902 467.192 572.85 467.192C572.28 467.183 571.716 467.3 571.197 467.535C570.678 467.77 570.218 468.117 569.85 468.552L569.77 468.642C569.682 468.832 569.664 469.047 569.719 469.249C569.774 469.451 569.898 469.627 570.07 469.746C570.242 469.866 570.45 469.921 570.659 469.902C570.867 469.883 571.062 469.791 571.21 469.642C571.406 469.383 571.662 469.175 571.957 469.038C572.251 468.9 572.575 468.836 572.9 468.852V468.852C573.497 468.852 574.071 469.089 574.494 469.51C574.918 469.932 575.157 470.504 575.16 471.102V473.592C575.18 473.826 575.282 474.046 575.449 474.213C575.615 474.379 575.835 474.482 576.07 474.502C576.183 474.514 576.298 474.499 576.404 474.458C576.511 474.417 576.606 474.352 576.682 474.267C576.759 474.182 576.814 474.08 576.843 473.969C576.872 473.859 576.874 473.743 576.85 473.632Z" fill="#21252B"/>
</g>
<path d="M514.538 761.172L515.118 773.962L514.998 793.052C514.928 796.572 514.998 799.052 513.298 802.112L507.438 811.112C507.091 811.562 506.63 811.91 506.102 812.121C505.574 812.332 505 812.398 504.438 812.312C504.128 812.248 503.831 812.133 503.558 811.972C503.238 811.784 502.958 811.535 502.734 811.238C502.51 810.942 502.347 810.604 502.254 810.245C502.161 809.885 502.14 809.511 502.192 809.143C502.245 808.775 502.369 808.421 502.558 808.102L501.848 809.212C501.445 809.86 500.853 810.369 500.153 810.673C499.453 810.976 498.677 811.06 497.928 810.912C497.579 810.831 497.243 810.703 496.928 810.532C496.504 810.299 496.131 809.985 495.829 809.607C495.527 809.229 495.303 808.796 495.169 808.331C495.035 807.867 494.994 807.38 495.049 806.9C495.104 806.419 495.253 805.954 495.488 805.532L494.328 807.712C494.128 808.109 493.849 808.462 493.509 808.749C493.169 809.036 492.774 809.251 492.349 809.382C491.924 809.514 491.476 809.558 491.034 809.512C490.591 809.466 490.162 809.332 489.773 809.116C489.383 808.901 489.041 808.61 488.767 808.259C488.493 807.909 488.292 807.506 488.177 807.077C488.061 806.647 488.034 806.198 488.096 805.757C488.158 805.317 488.309 804.893 488.538 804.512L490.058 801.722L487.458 806.362C487.117 806.951 486.6 807.42 485.98 807.701C485.359 807.982 484.667 808.063 483.998 807.932C483.801 807.89 483.607 807.834 483.418 807.762C482.642 807.443 482.024 806.829 481.699 806.055C481.375 805.28 481.371 804.409 481.688 803.632L483.418 797.822L485.028 790.302C486.248 784.572 486.798 780.412 489.508 774.742L492.228 769.082C493.4 767.357 493.882 765.255 493.578 763.192L514.538 761.172Z" fill="#FC9D9D"/>
<path opacity="0.15" d="M503.997 812.47C503.687 812.406 503.39 812.292 503.117 812.13C502.797 811.943 502.517 811.693 502.293 811.397C502.069 811.101 501.906 810.763 501.813 810.403C501.72 810.044 501.699 809.669 501.752 809.302C501.804 808.934 501.928 808.58 502.117 808.26L501.407 809.38C501.001 810.025 500.409 810.532 499.71 810.834C499.01 811.135 498.235 811.218 497.487 811.07C496.923 810.955 496.394 810.709 495.943 810.351C495.492 809.994 495.13 809.536 494.888 809.014C494.646 808.491 494.53 807.919 494.549 807.344C494.568 806.769 494.721 806.206 494.997 805.701L493.827 807.88C493.618 808.26 493.336 808.595 492.997 808.865C492.658 809.136 492.27 809.337 491.853 809.457C491.437 809.577 491.001 809.614 490.57 809.566C490.139 809.518 489.722 809.385 489.342 809.175C488.963 808.966 488.628 808.684 488.358 808.345C488.087 808.006 487.886 807.618 487.766 807.201C487.646 806.785 487.609 806.349 487.657 805.918C487.705 805.487 487.838 805.07 488.047 804.69L489.567 801.891L486.967 806.531C486.628 807.122 486.111 807.592 485.491 807.875C484.87 808.159 484.177 808.241 483.507 808.11C483.305 808.07 483.108 808.01 482.917 807.93C482.143 807.61 481.527 806.995 481.205 806.221C480.882 805.447 480.88 804.576 481.197 803.8L483.997 797L484.157 796.23L485.427 797.31C485.79 797.672 486.232 797.945 486.718 798.108C487.203 798.271 487.72 798.32 488.227 798.25L489.177 798.11C490.029 798.045 490.877 798.266 491.587 798.74L493.097 799.74C493.659 800.142 494.337 800.349 495.027 800.331H496.127C496.841 800.287 497.548 800.492 498.127 800.91L499.437 801.771C500.099 802.152 500.855 802.335 501.617 802.3L503.757 802.16C504.581 802.08 505.406 802.292 506.087 802.76C506.557 803.093 507.104 803.301 507.676 803.364C508.248 803.427 508.827 803.343 509.357 803.12L512.687 802.68L507.227 811.081C506.904 811.623 506.417 812.049 505.837 812.298C505.257 812.548 504.614 812.608 503.997 812.47V812.47Z" fill="black"/>
<g opacity="0.15">
<path opacity="0.15" d="M490.85 801.82V801.77C490.89 801.706 490.917 801.634 490.929 801.56C490.941 801.485 490.938 801.409 490.92 801.335C490.902 801.262 490.87 801.192 490.826 801.131C490.781 801.071 490.725 801.019 490.66 800.98H490.61C490.474 800.909 490.316 800.895 490.17 800.94C490.024 800.985 489.902 801.085 489.83 801.22L487.68 804.8L488.68 805.48L490.85 801.82Z" fill="black"/>
</g>
<g opacity="0.15">
<path opacity="0.15" d="M495.584 806.38L497.534 803.21C497.533 803.183 497.524 803.157 497.508 803.135C497.492 803.114 497.469 803.098 497.444 803.09H497.294L495.344 806.26L495.584 806.38Z" fill="white"/>
<path opacity="0.15" d="M497.482 802.62C497.524 802.63 497.564 802.648 497.598 802.674C497.632 802.7 497.661 802.732 497.682 802.77C497.809 802.862 497.899 802.995 497.937 803.147C497.975 803.299 497.96 803.459 497.892 803.6L495.742 807.18L494.742 806.5L496.892 802.92C496.948 802.801 497.044 802.706 497.162 802.649C497.28 802.593 497.415 802.579 497.542 802.61L497.482 802.62Z" fill="black"/>
</g>
<g opacity="0.15">
<path opacity="0.15" d="M501.629 808.732L503.629 805.463V805.312H503.489L501.539 808.482L501.629 808.732Z" fill="white"/>
<path opacity="0.15" d="M503.623 804.732C503.723 804.732 503.723 804.732 503.823 804.892C503.949 804.984 504.04 805.116 504.08 805.267C504.12 805.419 504.107 805.579 504.043 805.722L501.883 809.302L500.883 808.622L503.003 805.002C503.059 804.882 503.154 804.786 503.272 804.728C503.39 804.669 503.524 804.653 503.653 804.682L503.623 804.732Z" fill="black"/>
</g>
<path d="M491.062 767.301L507.003 657.681L518.323 604.001L528.003 554.311C528.163 553.381 528.362 552.471 528.612 551.561C529.527 548.282 531.079 545.215 533.18 542.535C535.28 539.855 537.888 537.616 540.854 535.944C543.82 534.273 547.086 533.202 550.466 532.793C553.846 532.384 557.273 532.645 560.552 533.561V533.561C560.942 533.661 561.323 533.781 561.693 533.901C574.883 538.271 583.473 555.151 579.893 568.581C579.654 569.444 579.363 570.293 579.023 571.121L540.023 670.251L516.003 772.601L491.062 767.301Z" fill="#21252B"/>
<path d="M554 503.998L554.71 497.698C554.72 497.585 554.757 497.476 554.817 497.379C554.878 497.282 554.96 497.201 555.057 497.142C555.154 497.083 555.264 497.047 555.377 497.038C555.49 497.028 555.604 497.046 555.71 497.088C571.077 502.471 584.291 512.679 593.38 526.188L594.03 535.108L554 503.998Z" fill="white"/>
<path d="M615.771 464.789H615.681L605.121 465.059C604.281 465.106 603.494 465.483 602.931 466.109C602.369 466.735 602.078 467.559 602.121 468.399L602.181 470.929C602.155 472.073 602.362 473.21 602.789 474.271C603.216 475.332 603.855 476.295 604.667 477.102C605.478 477.908 606.445 478.541 607.509 478.962C608.573 479.383 609.711 479.583 610.855 479.549C611.998 479.516 613.123 479.25 614.16 478.768C615.198 478.286 616.127 477.598 616.89 476.746C617.653 475.894 618.234 474.895 618.599 473.811C618.964 472.726 619.104 471.579 619.011 470.439L618.951 467.909C618.935 467.177 618.67 466.472 618.201 465.909C617.557 465.25 616.692 464.851 615.771 464.789V464.789ZM617.771 467.949L617.831 470.469C617.903 471.434 617.779 472.404 617.466 473.32C617.154 474.236 616.659 475.079 616.012 475.799C615.365 476.52 614.58 477.101 613.702 477.51C612.825 477.918 611.874 478.145 610.906 478.177C609.939 478.209 608.975 478.045 608.073 477.694C607.171 477.344 606.348 476.815 605.656 476.139C604.963 475.463 604.414 474.654 604.042 473.76C603.671 472.866 603.483 471.907 603.491 470.939L603.431 468.409C603.43 467.905 603.618 467.419 603.96 467.049C604.301 466.678 604.769 466.449 605.271 466.409L615.831 466.139H615.921C616.408 466.15 616.871 466.35 617.211 466.698C617.551 467.045 617.742 467.513 617.741 467.999L617.771 467.949Z" fill="#21252B"/>
<path opacity="0.15" d="M597.327 706.27H559.787C558.421 706.27 557.111 705.727 556.145 704.761C555.179 703.795 554.637 702.485 554.637 701.12V690.85C554.637 690.659 554.712 690.475 554.847 690.34C554.982 690.205 555.166 690.13 555.357 690.13H601.757C601.948 690.13 602.131 690.205 602.266 690.34C602.401 690.475 602.477 690.659 602.477 690.85V701.12C602.477 701.796 602.343 702.466 602.085 703.09C601.826 703.715 601.446 704.283 600.968 704.761C600.49 705.239 599.922 705.619 599.297 705.878C598.673 706.136 598.003 706.27 597.327 706.27V706.27Z" fill="black"/>
<path d="M597.367 535.602C597.367 535.602 614.117 551.052 616.117 583.052L597.627 540.662L597.367 535.602Z" class="change-color-in-svg" fill="#4D61FC" style="fill: rgb(0, 183, 126);"/>
<path d="M613.682 590.27L598.382 559.1L599.902 551L592.342 549.64C592.342 549.64 569.832 512.24 549.172 508.28L553.542 503.02C553.542 503.02 566.412 503.02 585.892 524.6C591.635 531.024 596.535 538.155 600.472 545.82L608.182 560.82C612.292 568.829 615.21 577.396 616.842 586.25C618.439 592.524 619.166 598.987 619.002 605.46L613.682 590.27Z" fill="#21252B"/>
<path opacity="0.15" d="M613.682 590.27L598.382 559.1L599.902 551L592.342 549.64C592.342 549.64 569.832 512.24 549.172 508.28L553.542 503.02C553.542 503.02 566.412 503.02 585.892 524.6C591.635 531.024 596.535 538.155 600.472 545.82L608.182 560.82C612.292 568.829 615.21 577.396 616.842 586.25C618.439 592.524 619.166 598.987 619.002 605.46L613.682 590.27Z" fill="black"/>
<path opacity="0.1" d="M597.327 704.559H559.787C558.421 704.559 557.111 704.016 556.145 703.05C555.179 702.084 554.637 700.774 554.637 699.409V690.849C554.637 690.658 554.712 690.475 554.847 690.339C554.982 690.204 555.166 690.129 555.357 690.129H601.757C601.948 690.129 602.131 690.204 602.266 690.339C602.401 690.475 602.477 690.658 602.477 690.849V699.409C602.477 700.085 602.343 700.755 602.085 701.379C601.826 702.004 601.446 702.572 600.968 703.05C600.49 703.528 599.922 703.908 599.297 704.167C598.673 704.425 598.003 704.559 597.327 704.559V704.559Z" fill="white"/>
<path d="M614.653 490.272C612.055 490.084 609.532 489.312 607.273 488.012C607.273 488.012 609.963 492.452 614.123 493.732L614.653 490.272Z" fill="white"/>
<path d="M580.185 466.295L580.055 467.789L603.058 469.789L603.188 468.295L580.185 466.295Z" fill="#21252B"/>
</svg>