<?xml version="1.0" encoding="UTF-8" standalone="no"?>
<!DOCTYPE svg PUBLIC "-//W3C//DTD SVG 1.1//EN" "http://www.w3.org/Graphics/SVG/1.1/DTD/svg11.dtd">
<svg width="100%" height="100%" viewBox="0 0 24 24" version="1.1" xmlns="http://www.w3.org/2000/svg" xmlns:xlink="http://www.w3.org/1999/xlink" xml:space="preserve" xmlns:serif="http://www.serif.com/" style="fill-rule:evenodd;clip-rule:evenodd;stroke-linejoin:round;stroke-miterlimit:2;">
    <rect x="0" y="0" width="24" height="24" style="fill:none;fill-rule:nonzero;"/>
    <path d="M12,2C6.48,2 2,6.48 2,12C2,17.52 6.48,22 12,22C17.52,22 22,17.52 22,12C22,6.48 17.52,2 12,2ZM13,19L11,19L11,17L13,17L13,19ZM15.07,11.25L14.17,12.17C13.45,12.9 13,13.5 13,15L11,15L11,14.5C11,13.4 11.45,12.4 12.17,11.67L13.41,10.41C13.78,10.05 14,9.55 14,9C14,7.9 13.1,7 12,7C10.9,7 10,7.9 10,9L8,9C8,6.79 9.79,5 12,5C14.21,5 16,6.79 16,9C16,9.88 15.64,10.68 15.07,11.25Z" style="fill:rgb(153,215,240);fill-rule:nonzero;"/>
</svg>
