<?xml version="1.0" encoding="UTF-8" standalone="no"?>
<!DOCTYPE svg PUBLIC "-//W3C//DTD SVG 1.1//EN" "http://www.w3.org/Graphics/SVG/1.1/DTD/svg11.dtd">
<svg width="100%" height="100%" viewBox="0 0 24 24" version="1.1" xmlns="http://www.w3.org/2000/svg" xmlns:xlink="http://www.w3.org/1999/xlink" xml:space="preserve" xmlns:serif="http://www.serif.com/" style="fill-rule:evenodd;clip-rule:evenodd;stroke-linejoin:round;stroke-miterlimit:2;">
    <rect x="0" y="0" width="24" height="24" style="fill:none;fill-rule:nonzero;"/>
    <path d="M2,20L22,20L22,16L2,16L2,20ZM4,17L6,17L6,19L4,19L4,17ZM2,4L2,8L22,8L22,4L2,4ZM6,7L4,7L4,5L6,5L6,7ZM2,14L22,14L22,10L2,10L2,14ZM4,11L6,11L6,13L4,13L4,11Z" style="fill:rgb(153,215,240);fill-rule:nonzero;"/>
</svg>
