<?xml version="1.0" encoding="UTF-8" standalone="no"?>
<!DOCTYPE svg PUBLIC "-//W3C//DTD SVG 1.1//EN" "http://www.w3.org/Graphics/SVG/1.1/DTD/svg11.dtd">
<svg width="100%" height="100%" viewBox="0 0 1000 1000" version="1.1" xmlns="http://www.w3.org/2000/svg" xmlns:xlink="http://www.w3.org/1999/xlink" xml:space="preserve" xmlns:serif="http://www.serif.com/" style="fill-rule:evenodd;clip-rule:evenodd;stroke-linejoin:round;stroke-miterlimit:2;">
    <g transform="matrix(1,0,0,1,0,-99.1105)">
        <path d="M251.908,229.005L251.908,170.674L743.003,170.674L743.003,339.682L682.269,339.682C671.083,331.354 657.613,325.863 642.911,324.319L643.854,282.533C651.676,279.983 657.408,272.757 657.603,264.103C657.852,253.114 649.108,244.006 638.072,243.757C627.037,243.508 617.882,252.211 617.634,263.2C617.439,271.863 622.847,279.332 630.537,282.233L629.594,324.018C613.56,324.975 598.767,330.639 586.625,339.682L582.453,339.682L555.225,311.327C558.928,304.02 557.854,294.877 551.843,288.619C544.215,280.674 531.559,280.388 523.58,287.981C515.601,295.556 515.316,308.168 522.945,316.104C528.955,322.371 538.081,323.845 545.59,320.489L574.606,350.697C563.885,362.743 556.777,378.059 554.983,395.013L513.001,394.065C510.432,386.287 503.18,380.574 494.479,380.377C483.444,380.128 474.298,388.832 474.05,399.821C473.801,410.818 482.545,419.917 493.589,420.167C502.282,420.363 509.784,415.009 512.702,407.337L554.683,408.285C555.71,425.304 562.111,440.915 572.286,453.434L541.936,482.301C534.586,478.583 525.403,479.67 519.116,485.651C511.137,493.234 510.852,505.82 518.481,513.774C526.109,521.719 538.765,522.004 546.744,514.412C553.04,508.423 554.517,499.372 551.148,491.889L580.153,464.308L580.153,828.435L414.758,828.435L414.758,339.682L288.146,339.682L285.673,337.326C294.91,325.885 299.946,312.26 300.812,298.463L336.663,297.429C339.142,303.982 345.541,308.559 352.969,308.343C362.398,308.072 369.891,300.204 369.703,290.773C369.526,281.353 361.719,273.918 352.296,274.195C344.862,274.405 338.658,279.348 336.441,286.044L300.584,287.084C299.164,273.352 293.592,260.032 283.913,249.141L308.769,223.043C315.169,225.887 322.97,224.57 328.122,219.161C334.655,212.301 334.439,201.491 327.637,195.013C320.83,188.53 310.028,188.846 303.489,195.711C298.342,201.115 297.392,208.955 300.554,215.22L275.699,241.317C268.492,235.516 260.391,231.415 251.908,229.005Z" style="fill:rgb(88,88,88);"/>
    </g>
    <g transform="matrix(1,0,0,1,322.745,-31.7662)">
        <text x="81.321px" y="840.55px" style="font-family:'Roboto-Light', 'Roboto';font-weight:300;font-size:50px;fill:rgb(88,88,88);">TRACER</text>
    </g>
    <g transform="matrix(1,0,0,1,176.62,-63.5324)">
        <text x="106.734px" y="930.766px" style="font-family:'Roboto-Thin', 'Roboto';font-weight:250;font-size:50px;fill:rgb(90,90,90);">VIRUS <tspan x="256.222px " y="930.766px ">T</tspan>RA<tspan x="348.409px " y="930.766px ">C</tspan>KING</text>
    </g>
</svg>
